<?xml version="1.0" encoding="UTF-8"?><svg id="a" xmlns="http://www.w3.org/2000/svg" xmlns:xlink="http://www.w3.org/1999/xlink" viewBox="0 0 399 31"><defs><style>.c{fill:none;}.c,.d,.e{stroke-width:0px;}.d{fill:#982c2e;}.f{clip-path:url(#b);}.e{fill:#8a8b8d;}</style><clipPath id="b"><rect class="c" width="399" height="31"/></clipPath></defs><g class="f"><path class="e" d="M392.1,24.2h2.1v-8.1c0-.5,0-.9,0-1.2,0-.3.1-.6.2-.8.1-.2.2-.4.4-.4.2,0,.4-.1.6-.1.5,0,.8.2,1,.5.2.4.3,1,.3,1.8v8.4h2.2v-8.9c0-1.3-.1-2.2-.3-2.6-.4-.8-1.1-1.2-2-1.2s-1.8.5-2.4,1.6V3.6h-2.1v20.6ZM387.6,21.3c-.2.6-.6,1-1.1,1s-.8-.3-1-1c-.2-.7-.3-1.8-.3-3.4s.1-2.7.3-3.4c.2-.7.6-1,1-1s.9.3,1.1,1c.2.6.3,1.8.3,3.5s-.1,2.7-.3,3.3M383,24.2h2.1v-1.6c.3.7.6,1.2.9,1.4.3.3.7.4,1.2.4,1,0,1.7-.5,2.1-1.6.5-1.1.7-2.7.7-5s0-2-.2-2.8c-.1-.8-.3-1.5-.5-2-.2-.5-.5-.9-.9-1.1-.4-.2-.8-.4-1.3-.4s-.9.1-1.2.4c-.2.1-.3.3-.5.5-.2.2-.3.5-.5.8V3.6h-2.1v20.6ZM369,24.2h2.1v-8.3c0-.9.1-1.5.3-1.9.2-.4.6-.5,1.1-.5s.4,0,.6.1c.2,0,.3.2.4.4,0,.2.2.4.2.7,0,.3,0,.7,0,1.1v8.3h2.2v-8.3c0-.9,0-1.6.3-1.9.2-.3.5-.5,1.1-.5s.8.2.9.5c.2.3.2,1,.2,1.9v8.3h2.2v-10c0-.9-.2-1.6-.6-2.1-.4-.5-1.1-.7-1.9-.7s-1.9.6-2.4,1.8c-.4-1.2-1.1-1.8-2.2-1.8s-1.8.6-2.4,1.8v-1.6h-2.1v12.5ZM364.1,21.4c-.2.6-.5.9-1,.9s-.9-.3-1.1-1c-.2-.7-.3-1.9-.3-3.5s.1-2.6.3-3.2c.2-.7.5-1,1-1,1,0,1.4,1.5,1.4,4.5s0,2.8-.3,3.3M364.4,13.1c-.3-.6-.6-1.1-.9-1.3-.3-.3-.7-.4-1.2-.4-1,0-1.7.5-2.2,1.6-.4,1.1-.7,2.8-.7,5.1s.2,3.8.7,4.8c.5,1,1.2,1.5,2.2,1.5s1.6-.6,2.1-1.7v2.4c0,1,0,1.6-.3,1.9-.2.3-.5.5-1,.5-.9,0-1.4-.7-1.4-2h-2.1v.4c0,1.1.3,2,.9,2.6.6.6,1.4,1,2.5,1,1.6,0,2.6-.5,3.2-1.6.3-.6.4-1.7.4-3.2v-12.9h-2.2v1.5ZM355.3,21.8c-.3.3-.4.6-.4,1.1s0,.4.1.6c0,.2.2.3.3.5.1.1.3.2.4.3.2,0,.4.1.5.1.4,0,.7-.1,1-.4.3-.3.4-.6.4-1.1s-.1-.8-.4-1.1c-.3-.3-.6-.4-1-.4s-.7.1-1,.4M349.7,24.2h2.1v-7.6c0-1.1.2-1.8.5-2.2.3-.4.9-.6,1.7-.6s.2,0,.4,0v-2.4c-.6,0-1.1.2-1.4.5s-.7.7-1.1,1.4v-1.6h-2.1v12.5ZM342.9,16.7c0-1.3.2-2.2.4-2.6.2-.5.5-.7.9-.7s.7.2.9.7c.2.4.3,1.3.4,2.6h-2.7ZM344.4,22.4c-1,0-1.5-1.3-1.5-4h4.9v-.3c0-4.4-1.2-6.6-3.5-6.6s-2.1.5-2.7,1.6c-.6,1.1-.9,2.7-.9,4.9s0,2.1.2,2.9c.1.8.4,1.5.6,2,.3.5.7.9,1.1,1.2.4.3,1,.4,1.6.4,2.1,0,3.2-1.5,3.4-4.4h-2c0,1.6-.5,2.4-1.3,2.4M331.9,24.2h2.1v-8.1c0-.5,0-.9,0-1.2,0-.3.1-.6.2-.8.1-.2.2-.4.4-.4.2,0,.4-.1.6-.1.5,0,.8.2,1,.5.2.4.3,1,.3,1.8v8.4h2.2v-8.9c0-1.3-.1-2.2-.3-2.6-.4-.8-1.1-1.2-2-1.2s-1.8.5-2.4,1.6v-1.4h-2.1v12.5ZM324.9,14.5c.2-.6.6-1,1.1-1s.8.3,1,1c.2.7.3,1.9.3,3.4s-.1,2.6-.3,3.4c-.2.7-.6,1-1,1s-.9-.3-1.1-1c-.2-.7-.3-1.8-.3-3.5s.1-2.8.3-3.4M327.3,11.6v1.4c-.5-1.1-1.3-1.6-2.1-1.6s-1.7.5-2.1,1.5c-.5,1-.7,2.6-.7,4.8s.2,4,.7,5c.4,1.1,1.2,1.6,2.1,1.6s.9-.1,1.2-.4c.3-.3.6-.7.9-1.4v1.6h2.1v-12.5h-2.1ZM318.2,24.2h2.1V3.6h-2.1v20.6ZM313.7,21.3c-.2.6-.6,1-1.1,1s-.8-.3-1.1-1c-.2-.6-.3-1.8-.3-3.4s.1-2.7.3-3.4c.2-.7.6-1,1.1-1s.9.3,1.1,1c.2.6.3,1.8.3,3.5s-.1,2.7-.3,3.3M311.3,29.3v-6.5c.2.3.3.6.5.8.1.2.3.4.4.5.3.2.7.4,1.2.4,1,0,1.7-.5,2.2-1.5.5-1,.7-2.6.7-4.8s-.2-4-.7-5c-.4-1.1-1.1-1.6-2.1-1.6s-.9.1-1.2.4c-.3.3-.6.7-.9,1.4v-1.6h-2.1v17.7h2.1ZM304.3,11.6h-1.2v1.8h1.2v10.7h2.1v-10.7h1.2v-1.8h-1.2v-3.5h-2.1v3.5ZM297,14.5c.2-.6.6-1,1.1-1s.8.3,1,1c.2.7.3,1.9.3,3.4s-.1,2.6-.3,3.4c-.2.7-.6,1-1,1s-.9-.3-1.1-1c-.2-.7-.3-1.8-.3-3.5s.1-2.8.3-3.4M299.4,3.6v9.5c-.2-.3-.3-.6-.5-.8-.2-.2-.3-.4-.5-.5-.3-.2-.7-.4-1.2-.4s-.9.1-1.3.4c-.4.2-.7.6-.9,1.1-.2.5-.4,1.2-.5,2-.1.8-.2,1.7-.2,2.8,0,2.3.2,3.9.7,5,.4,1.1,1.2,1.6,2.1,1.6s.9-.1,1.2-.4c.3-.3.6-.7.9-1.4v1.6h2.1V3.6h-2.1ZM288,14.5c.2-.6.6-1,1.1-1s.8.3,1,1c.2.7.3,1.9.3,3.4s-.1,2.6-.3,3.4c-.2.7-.6,1-1,1s-.9-.3-1.1-1c-.2-.7-.3-1.8-.3-3.5s.1-2.8.3-3.4M290.3,11.6v1.4c-.5-1.1-1.3-1.6-2.1-1.6s-1.7.5-2.1,1.5c-.4,1-.7,2.6-.7,4.8s.2,4,.7,5c.5,1.1,1.2,1.6,2.1,1.6s.9-.1,1.2-.4c.3-.3.6-.7.9-1.4v1.6h2.1v-12.5h-2.1ZM281,11.6h-1.2v1.8h1.2v10.7h2.1v-10.7h1.2v-1.8h-1.2v-3.5h-2.1v3.5ZM276.4,11.4c-.9,0-1.7.3-2.3,1-.6.6-.9,1.5-.9,2.5s.2,1.4.5,1.9c.3.5.9,1.2,1.8,1.9.3.2.5.4.7.6.2.2.3.3.4.5.2.3.3.6.3,1,0,1-.5,1.6-1.5,1.6s-1.1-.3-1.8-.8v2.2c.6.4,1.3.6,1.9.6,1,0,1.8-.3,2.4-1,.6-.7.9-1.6.9-2.7s-.1-1.4-.4-1.9c-.1-.3-.3-.5-.6-.8-.3-.3-.6-.6-1-.9-1-.8-1.5-1.5-1.5-2.1s0-.4.1-.6c0-.2.2-.3.3-.4.1-.1.3-.2.4-.3.2,0,.3-.1.5-.1.6,0,1.1.2,1.7.6v-2.2c-.6-.4-1.3-.5-1.9-.5M269.3,21.8c-.3.3-.4.6-.4,1.1s0,.4.1.6c0,.2.2.3.3.5.1.1.3.2.4.3.2,0,.3.1.5.1.4,0,.7-.1,1-.4.3-.3.4-.6.4-1.1s-.1-.8-.4-1.1c-.3-.3-.6-.4-1-.4s-.7.1-1,.4M259.7,24.2h2.1v-8.1c0-.5,0-.9,0-1.2,0-.3.1-.6.2-.8.1-.2.2-.4.4-.4.2,0,.4-.1.6-.1.5,0,.8.2,1,.5.2.4.3,1,.3,1.8v8.4h2.2v-8.9c0-1.3-.1-2.2-.3-2.6-.4-.8-1.1-1.2-2-1.2s-1.8.5-2.4,1.6v-1.4h-2.1v12.5ZM252.9,16.7c0-1.3.2-2.2.4-2.6.2-.5.5-.7.9-.7s.7.2.9.7c.2.4.3,1.3.4,2.6h-2.7ZM254.4,22.4c-1,0-1.5-1.3-1.5-4h4.9v-.3c0-4.4-1.2-6.6-3.5-6.6s-2.1.5-2.7,1.6c-.6,1.1-.9,2.7-.9,4.9s0,2.1.2,2.9c.1.8.4,1.5.6,2,.3.5.7.9,1.1,1.2.4.3,1,.4,1.6.4,2.1,0,3.2-1.5,3.4-4.4h-2c0,1.6-.5,2.4-1.3,2.4M246.4,11.6h-1.2v1.8h1.2v10.7h2.1v-10.7h1.2v-1.8h-1.2v-3.5h-2.1v3.5ZM237.2,24.2h2.1v-6.7l3,6.7h2.5l-3.4-7,3-5.6h-2.4l-2.7,5.6V3.6h-2.1v20.6ZM230.3,16.7c0-1.3.2-2.2.4-2.6.2-.5.5-.7.9-.7s.7.2.9.7c.2.4.3,1.3.4,2.6h-2.7ZM231.8,22.4c-1,0-1.5-1.3-1.5-4h4.9v-.3c0-4.4-1.2-6.6-3.5-6.6s-2.1.5-2.7,1.6c-.6,1.1-.9,2.7-.9,4.9s0,2.1.2,2.9.4,1.5.6,2c.3.5.7.9,1.1,1.2.4.3,1,.4,1.6.4,2.1,0,3.2-1.5,3.4-4.4h-2c0,1.6-.4,2.4-1.3,2.4M223.8,11.6h-1.2v1.8h1.2v10.7h2.1v-10.7h1.2v-1.8h-1.2v-3.5h-2.1v3.5ZM219,6.8c-.3.3-.4.7-.4,1.1s.1.8.4,1.1c.3.3.6.5,1,.5s.7-.2,1-.5c.3-.3.4-.7.4-1.1s-.1-.8-.4-1.1c-.3-.3-.6-.5-1-.5s-.7.2-1,.5M219,24.2h2.2v-12.5h-2.2v12.5ZM209.7,24.2h2.1v-8.1c0-.5,0-.9,0-1.2,0-.3.1-.6.2-.8.1-.2.2-.4.4-.4.2,0,.4-.1.6-.1.5,0,.8.2,1,.5s.3,1,.3,1.8v8.4h2.2v-8.9c0-1.3-.1-2.2-.3-2.6-.4-.8-1.1-1.2-2-1.2s-1.8.5-2.4,1.6V3.6h-2.1v20.6ZM206.3,11.4c-1.2,0-2.1.5-2.7,1.6-.6,1.1-.9,2.7-.9,5,0,4.2,1.2,6.4,3.5,6.4s1.2-.2,1.7-.5v-2.2c-.4.3-.8.5-1.1.5-1.2,0-1.8-1.5-1.8-4.4s.6-4.1,1.8-4.1.8.2,1.1.6v-2.4c-.5-.3-1.1-.4-1.7-.4M197,24.2h2.1v-7.6c0-1.1.2-1.8.5-2.2.3-.4.9-.6,1.7-.6s.2,0,.4,0v-2.4c-.6,0-1.1.2-1.4.5-.4.3-.7.7-1.1,1.4v-1.6h-2.1v12.5ZM190,14.5c.2-.6.6-1,1.1-1s.8.3,1,1c.2.7.3,1.9.3,3.4s-.1,2.6-.3,3.4c-.2.7-.6,1-1,1s-.9-.3-1.1-1c-.2-.7-.3-1.8-.3-3.5s.1-2.8.3-3.4M192.4,11.6v1.4c-.5-1.1-1.3-1.6-2.1-1.6s-1.7.5-2.1,1.5c-.5,1-.7,2.6-.7,4.8s.2,4,.7,5c.4,1.1,1.2,1.6,2.1,1.6s.9-.1,1.2-.4.6-.7.9-1.4v1.6h2.1v-12.5h-2.1ZM183.8,11.4c-.9,0-1.7.3-2.3,1-.6.6-.9,1.5-.9,2.5s.2,1.4.5,1.9c.3.5.9,1.2,1.8,1.9.3.2.5.4.7.6.2.2.3.3.4.5.2.3.3.6.3,1,0,1-.5,1.6-1.5,1.6s-1.1-.3-1.8-.8v2.2c.6.4,1.3.6,1.9.6,1,0,1.8-.3,2.4-1,.6-.7.9-1.6.9-2.7s-.1-1.4-.4-1.9c-.1-.3-.3-.5-.6-.8-.3-.3-.6-.6-1-.9-1-.8-1.5-1.5-1.5-2.1s0-.4.1-.6c0-.2.2-.3.3-.4.1-.1.3-.2.4-.3.2,0,.3-.1.5-.1.6,0,1.1.2,1.7.6v-2.2c-.6-.4-1.3-.5-1.9-.5M176.3,11.6h-1.2v1.8h1.2v10.7h2.1v-10.7h1.2v-1.8h-1.2v-3.5h-2.1v3.5ZM169,13.5h1.1v10.7h2.1v-10.7h1.8v-1.8h-1.8v-4.3c0-.6,0-1,.2-1.2.2-.2.4-.4.8-.4s.6.1.9.3v-2.4c-.6-.2-1-.3-1.5-.3-1,0-1.6.3-2,.9-.4.6-.6,1.6-.6,3v4.4h-1.1v1.8ZM162.9,14.5c.2-.6.6-1,1.1-1s.8.3,1,1c.2.7.3,1.9.3,3.4s-.1,2.6-.3,3.4c-.2.7-.6,1-1,1s-.9-.3-1.1-1c-.2-.7-.3-1.8-.3-3.5s.1-2.8.3-3.4M165.3,11.6v1.4c-.5-1.1-1.3-1.6-2.1-1.6s-1.7.5-2.1,1.5c-.4,1-.7,2.6-.7,4.8s.2,4,.7,5c.5,1.1,1.2,1.6,2.1,1.6s.9-.1,1.2-.4c.3-.3.6-.7.9-1.4v1.6h2.1v-12.5h-2.1ZM151.5,24.2h2.1v-8.1c0-.5,0-.9,0-1.2,0-.3.1-.6.2-.8.1-.2.2-.4.4-.4.2,0,.4-.1.6-.1.5,0,.8.2,1,.5s.3,1,.3,1.8v8.4h2.2v-8.9c0-1.3-.1-2.2-.3-2.6-.4-.8-1.1-1.2-2-1.2s-1.8.5-2.4,1.6V3.6h-2.1v20.6ZM148.1,11.4c-1.2,0-2.1.5-2.7,1.6-.6,1.1-.9,2.7-.9,5,0,4.2,1.2,6.4,3.5,6.4s1.2-.2,1.7-.5v-2.2c-.4.3-.8.5-1.1.5-1.2,0-1.8-1.5-1.8-4.4s.6-4.1,1.8-4.1.8.2,1.1.6v-2.4c-.5-.3-1.1-.4-1.7-.4M140.8,11.4c-.9,0-1.7.3-2.3,1-.6.6-.9,1.5-.9,2.5s.2,1.4.5,1.9c.3.5.9,1.2,1.8,1.9.3.2.5.4.7.6.2.2.3.3.4.5.2.3.3.6.3,1,0,1-.5,1.6-1.5,1.6s-1.1-.3-1.8-.8v2.2c.6.4,1.3.6,1.9.6,1,0,1.8-.3,2.4-1,.6-.7.9-1.6.9-2.7s-.1-1.4-.4-1.9c-.1-.3-.3-.5-.6-.8-.3-.3-.6-.6-1-.9-1-.8-1.5-1.5-1.5-2.1s0-.4.1-.6c0-.2.2-.3.3-.4.1-.1.3-.2.4-.3.2,0,.3-.1.5-.1.6,0,1.1.2,1.7.6v-2.2c-.6-.4-1.3-.5-1.9-.5M131.3,14.5c.2-.6.6-1,1.1-1s.8.3,1,1c.2.7.3,1.9.3,3.4s-.1,2.6-.3,3.4c-.2.7-.6,1-1,1s-.9-.3-1.1-1c-.2-.7-.3-1.8-.3-3.5s.1-2.8.3-3.4M133.7,3.6v9.5c-.2-.3-.3-.6-.5-.8-.2-.2-.3-.4-.5-.5-.3-.2-.7-.4-1.2-.4s-.9.1-1.3.4c-.4.2-.7.6-.9,1.1-.2.5-.4,1.2-.5,2-.1.8-.2,1.7-.2,2.8,0,2.3.2,3.9.7,5,.4,1.1,1.2,1.6,2.1,1.6s.9-.1,1.2-.4c.3-.3.6-.7.9-1.4v1.6h2.1V3.6h-2.1ZM119.9,24.2h2.1v-8.1c0-.5,0-.9,0-1.2,0-.3.1-.6.2-.8.1-.2.2-.4.4-.4.2,0,.4-.1.6-.1.5,0,.8.2,1,.5.2.4.3,1,.3,1.8v8.4h2.2v-8.9c0-1.3-.1-2.2-.3-2.6-.4-.8-1.1-1.2-2-1.2s-1.8.5-2.4,1.6v-1.4h-2.1v12.5ZM112.9,14.5c.2-.6.6-1,1.1-1s.8.3,1,1c.2.7.3,1.9.3,3.4s-.1,2.6-.3,3.4c-.2.7-.6,1-1,1s-.9-.3-1.1-1c-.2-.7-.3-1.8-.3-3.5s.1-2.8.3-3.4M115.3,11.6v1.4c-.5-1.1-1.3-1.6-2.1-1.6s-1.7.5-2.1,1.5c-.4,1-.7,2.6-.7,4.8s.2,4,.7,5c.4,1.1,1.2,1.6,2.1,1.6s.9-.1,1.2-.4c.3-.3.6-.7.9-1.4v1.6h2.1v-12.5h-2.1ZM106.2,24.2h2.1V3.6h-2.1v20.6ZM90.3,30.2h2.9V0h-2.9v30.2Z"/><path class="d" d="M66.7,24.2h2.8v-10.5c0-.6,0-1.2,0-1.6,0-.4.2-.8.3-1,.1-.3.3-.5.5-.6.2-.1.5-.2.8-.2.6,0,1,.2,1.3.7.2.5.4,1.2.4,2.3v10.8h2.8v-11.5c0-1.7-.1-2.8-.4-3.4-.5-1-1.4-1.5-2.6-1.5s-2.3.7-3.1,2.1v-1.9h-2.8v16.2ZM60.5,2.3c-.3.3-.5.8-.5,1.3s0,.5.1.7c0,.2.2.4.4.6.2.2.3.3.5.4.2,0,.4.1.7.1.5,0,.9-.2,1.2-.5.3-.4.5-.8.5-1.3s-.2-.9-.5-1.3c-.3-.4-.7-.5-1.2-.5s-.9.2-1.2.5M55.4,2.3c-.3.3-.5.8-.5,1.3s.2.9.5,1.3c.3.4.7.5,1.2.5s.9-.2,1.2-.5.5-.8.5-1.3-.2-.9-.5-1.3-.7-.5-1.2-.5-.9.2-1.2.5M54.6,18.7c0,2.1.3,3.5,1,4.4.7.9,1.8,1.3,3.4,1.3s3.4-.7,4-2.2c.3-.8.5-2.3.5-4.5V8h-2.8v11c0,1-.1,1.7-.4,2.1-.3.4-.7.6-1.3.6s-1-.2-1.3-.6c-.3-.4-.4-1.1-.4-2.1V8h-2.8v10.7ZM46.7,24.2h2.8v-9.8c0-1.4.2-2.3.6-2.9.4-.6,1.1-.8,2.1-.8s.3,0,.5,0v-3.1c-.8,0-1.4.3-1.8.6-.5.3-.9.9-1.4,1.8v-2h-2.8v16.2ZM40.5,20.6c-.2.8-.7,1.2-1.3,1.2s-1.2-.4-1.5-1.3c-.3-1-.4-2.5-.4-4.5s.1-3.3.4-4.2c.3-.9.7-1.3,1.3-1.3,1.2,0,1.9,1.9,1.9,5.8s-.1,3.6-.4,4.3M40.8,9.9c-.4-.8-.8-1.4-1.2-1.7-.4-.3-.9-.5-1.5-.5-1.3,0-2.2.7-2.8,2-.6,1.4-.9,3.6-.9,6.6s.3,4.9.9,6.2c.6,1.3,1.5,2,2.8,2s2.1-.7,2.7-2.2v3.1c0,1.2-.1,2.1-.4,2.5-.2.4-.7.7-1.3.7-1.2,0-1.8-.9-1.8-2.6h-2.7v.5c0,1.4.4,2.5,1.1,3.4.8.8,1.8,1.2,3.2,1.2,2,0,3.4-.7,4.1-2.1.4-.8.6-2.2.6-4.2V8h-2.8v1.9Z"/><path class="e" d="M29.1,21.1c-.3.4-.5.8-.5,1.4s0,.5.1.8c0,.2.2.4.4.6.2.2.4.3.6.4.2,0,.5.1.7.1.5,0,.9-.2,1.3-.5.3-.4.5-.8.5-1.4s-.2-1-.5-1.4c-.3-.4-.8-.6-1.2-.6s-.9.2-1.3.6M24.3,7.7c-1.6,0-2.7.7-3.4,2.1-.7,1.4-1.1,3.5-1.1,6.4,0,5.5,1.5,8.2,4.5,8.2s1.5-.2,2.2-.6v-2.8c-.5.4-1,.6-1.4.6-1.5,0-2.3-1.9-2.3-5.7s.8-5.4,2.3-5.4,1,.3,1.4.8v-3.1c-.7-.4-1.4-.6-2.2-.6M12.3,24.2h2.8v-9.8c0-1.4.2-2.3.6-2.9.4-.6,1.1-.8,2.1-.8s.3,0,.5,0v-3.1c-.8,0-1.4.3-1.8.6-.5.3-.9.9-1.4,1.8v-2h-2.8v16.2ZM3.3,11.7c.3-.8.8-1.3,1.4-1.3s1.1.4,1.4,1.3c.3.9.4,2.4.4,4.4s-.1,3.4-.4,4.3c-.3.9-.7,1.3-1.4,1.3s-1.2-.4-1.4-1.3c-.3-.8-.4-2.3-.4-4.5s.1-3.6.4-4.3M6.4,8v1.8c-.7-1.4-1.6-2.1-2.8-2.1s-2.2.7-2.7,2C.3,11,0,13.1,0,15.9s.3,5.1.9,6.5c.6,1.4,1.5,2.1,2.7,2.1s1.2-.2,1.6-.5c.4-.3.8-.9,1.2-1.8v2.1h2.8V8h-2.8Z"/></g></svg>