<?xml version="1.0" encoding="iso-8859-1"?>
<!-- Uploaded to: SVG Repo, www.svgrepo.com, Generator: SVG Repo Mixer Tools -->
<svg fill="#000000" height="800px" width="800px" version="1.1" id="Layer_1" xmlns="http://www.w3.org/2000/svg" xmlns:xlink="http://www.w3.org/1999/xlink" 
	 viewBox="0 0 501.688 501.688" xml:space="preserve">
<g>
	<g>
		<g>
			<path d="M490.56,272.55c-4.267,0.107-8.107,2.987-9.6,6.933c-0.32,0.853-0.533,1.6-0.64,2.453
				c-2.88,20.8-8.64,41.173-17.067,60.48c-1.387-0.64-2.88-0.96-4.373-0.96h-88.213c9.173-29.333,13.867-59.947,13.867-90.667
				c0-5.867-4.8-10.667-10.667-10.667c-5.867,0-10.667,4.8-10.667,10.667c0,30.827-5.12,61.44-15.04,90.667H144.427
				c-21.76-58.453-21.76-122.88,0-181.333H245.12c5.333,0,10.133-3.84,10.88-9.067c0.96-6.613-4.16-12.267-10.56-12.267h-92.053
				c20.587-43.52,53.12-81.707,95.253-110.507l0.96,0.64c2.027,1.493,4.053,2.773,5.973,4.267
				c5.76,4.373,11.307,9.067,16.853,13.973c1.067,0.96,2.24,1.707,3.52,2.133c0.427,0.107,0.853,0.213,1.28,0.213
				c0.747,0.213,1.6,0.427,2.347,0.427c0.107,0,0.213-0.107,0.32-0.107c0.853-0.107,1.813-0.213,2.667-0.533
				c0.533-0.107,0.96-0.213,1.493-0.32c2.667-1.173,4.693-3.413,5.653-6.187c1.387-4.053,0.213-8.64-2.987-11.413
				c-3.307-2.987-6.613-5.867-10.027-8.64c8,0.853,16,2.133,23.893,3.84c6.293,1.493,12.693-2.88,13.227-9.707
				c0.213-3.52-1.28-7.04-4.16-9.173c-1.387-1.067-2.987-1.707-4.587-2.027c-17.387-3.733-35.2-5.653-53.013-5.653
				c-3.093,0-6.08,0.107-9.813,0.213C106.347,5.457,0,115.537,0,250.897s106.347,245.44,242.133,250.56h0.107h0.107
				c0.107,0,0.107,0,0.213,0h1.067c0.533,0.107,1.067,0.213,1.6,0.213c0.32,0,0.64-0.107,0.96-0.107
				c1.813,0.107,3.627,0.107,5.547,0.107c1.067,0,2.133-0.107,3.093-0.107c0.32,0,0.747,0.107,1.067,0.107
				c0.853,0,1.6-0.107,2.453-0.32c122.56-3.2,226.56-95.04,243.2-216.427C502.613,278.417,497.493,272.337,490.56,272.55z
				 M218.453,24.017c-38.613,30.293-69.013,69.76-88.533,114.88H50.773C85.76,76.497,147.733,34.044,218.453,24.017z M40.32,341.99
				c-25.28-58.347-25.28-124.587,0.107-182.933c0.747,0.853,2.347,1.067,2.347,1.067h78.933c-19.947,58.773-19.947,122.56,0,181.333
				H42.773C41.92,341.564,41.173,341.67,40.32,341.99z M50.773,362.79h79.253c19.52,45.013,49.92,84.48,88.533,114.88
				C147.733,467.644,85.653,425.084,50.773,362.79z M250.347,474.364c-42.987-28.907-76.053-67.413-96.853-111.573H339.84
				C320.427,407.27,289.493,445.777,250.347,474.364z M280.213,477.99c36.587-31.04,65.067-70.613,82.88-115.2h89.6
				C416.64,426.257,352.64,469.03,280.213,477.99z"/>
			<path d="M280.96,114.47c0,50.987,41.707,92.48,92.907,92.48c17.173,0,34.027-4.8,48.64-13.867l51.307,63.893
				c3.733,4.587,10.453,5.333,15.04,1.6s5.333-10.453,1.6-15.04l-51.093-63.68c17.493-17.28,27.413-40.853,27.413-65.493
				c0-50.987-41.707-92.48-92.907-92.48S280.96,63.484,280.96,114.47z M373.76,43.324c39.467,0,71.573,31.893,71.573,71.147
				c0,39.253-32.107,71.147-71.573,71.147s-71.573-31.893-71.573-71.147S334.4,43.324,373.76,43.324z"/>
		</g>
	</g>
</g>
</svg>