<?xml version="1.0" encoding="UTF-8" standalone="no"?>
<!-- Generator: Adobe Illustrator 19.0.0, SVG Export Plug-In . SVG Version: 6.00 Build 0)  -->

<svg
   xmlns:dc="http://purl.org/dc/elements/1.1/"
   xmlns:cc="http://creativecommons.org/ns#"
   xmlns:rdf="http://www.w3.org/1999/02/22-rdf-syntax-ns#"
   xmlns:svg="http://www.w3.org/2000/svg"
   xmlns="http://www.w3.org/2000/svg"
   xmlns:sodipodi="http://sodipodi.sourceforge.net/DTD/sodipodi-0.dtd"
   xmlns:inkscape="http://www.inkscape.org/namespaces/inkscape"
   version="1.1"
   id="Ebene_1"
   x="0px"
   y="0px"
   viewBox="-234 281.3 100.7 15.6"
   xml:space="preserve"
   sodipodi:docname="GEOPLEX_Logo_RGB.svg"
   width="100.7"
   height="15.6"
   inkscape:version="0.92.3 (d244b95, 2018-08-02)"><metadata
   id="metadata11266"><rdf:RDF><cc:Work
       rdf:about=""><dc:format>image/svg+xml</dc:format><dc:type
         rdf:resource="http://purl.org/dc/dcmitype/StillImage" /></cc:Work></rdf:RDF></metadata><defs
   id="defs11264" /><sodipodi:namedview
   pagecolor="#ffffff"
   bordercolor="#666666"
   borderopacity="1"
   objecttolerance="10"
   gridtolerance="10"
   guidetolerance="10"
   inkscape:pageopacity="0"
   inkscape:pageshadow="2"
   inkscape:window-width="1853"
   inkscape:window-height="1052"
   id="namedview11262"
   showgrid="false"
   inkscape:zoom="13.442231"
   inkscape:cx="52.880531"
   inkscape:cy="7.8"
   inkscape:window-x="1987"
   inkscape:window-y="0"
   inkscape:window-maximized="1"
   inkscape:current-layer="Ebene_1" />
<style
   type="text/css"
   id="style11243">
	.st0{fill:#00A0BE;}
</style>
<g
   id="XMLID_1_"
   transform="translate(-12.4,-8.7)">
</g>
<g
   id="XMLID_2_"
   transform="translate(-12.4,-8.7)">
</g>
<g
   id="XMLID_14_"
   transform="translate(-12.4,-8.7)">
</g>
<g
   id="XMLID_23_"
   transform="translate(-12.4,-8.7)">
</g>
<g
   id="XMLID_26_"
   transform="translate(-12.4,-8.7)">
</g>
<g
   id="g11259"
   transform="translate(-12.4,-8.7)">
	<path
   id="XMLID_10_"
   class="st0"
   d="m -180.3,290.3 h -8.8 l -4.4,7.5 4.4,7.5 h 8.8 l 4.4,-7.5 z m -1.3,12.8 h -6.2 l -3.1,-5.2 3.1,-5.2 h 6.2 l 3.1,5.2 z"
   inkscape:connector-curvature="0"
   style="fill:#00a0be" />
	<g
   id="XMLID_68_">
		<path
   id="XMLID_69_"
   class="st0"
   d="m -208,297.2 v 1.6 c 0,3.5 -1.8,6.8 -6.5,6.8 -4.6,0 -7.1,-3.3 -7.1,-7.8 0,-4.5 2.5,-7.8 7.1,-7.8 3.3,0 5.4,1.7 6,4.4 h -2.6 c -0.4,-1.3 -1.5,-2.1 -3.4,-2.1 -3.1,0 -4.6,2.4 -4.6,5.5 0,3 1.4,5.5 4.6,5.5 2.6,0 3.8,-1.6 3.9,-4 h -4.1 v -2.1 z"
   inkscape:connector-curvature="0"
   style="fill:#00a0be" />
	</g>
	<polygon
   id="XMLID_67_"
   class="st0"
   points="-194.4,305.4 -194.4,303.1 -203,303.1 -203,298.8 -196.4,298.8 -196.4,296.5 -203,296.5 -203,292.6 -194.7,292.6 -194.7,290.3 -205.5,290.3 -205.5,305.4 "
   style="fill:#00a0be" />
	<g
   id="XMLID_73_">
		<path
   id="XMLID_74_"
   class="st0"
   d="m -167.4,297.4 c 2.3,0 3.1,-0.9 3.1,-2.4 0,-1.5 -0.8,-2.4 -3.1,-2.4 h -3.7 v 4.8 z m 0.4,-7.1 c 3.4,0 5.3,1.7 5.3,4.6 0,2.9 -1.9,4.7 -5.3,4.7 h -4.1 v 5.7 h -2.5 v -15 z"
   inkscape:connector-curvature="0"
   style="fill:#00a0be" />
	</g>
	<polygon
   id="XMLID_72_"
   class="st0"
   points="-148.7,305.4 -148.7,303 -156.9,303 -156.9,290.3 -159.4,290.3 -159.4,305.4 "
   style="fill:#00a0be" />
	<polygon
   id="XMLID_71_"
   class="st0"
   points="-135.7,305.4 -135.7,303.1 -144.2,303.1 -144.2,298.8 -137.7,298.8 -137.7,296.5 -144.2,296.5 -144.2,292.6 -135.9,292.6 -135.9,290.3 -146.7,290.3 -146.7,305.4 "
   style="fill:#00a0be" />
	<polygon
   id="XMLID_70_"
   class="st0"
   points="-127.9,296.1 -130.9,290.3 -133.6,290.3 -129.8,297.5 -134.2,305.4 -131.4,305.4 -127.9,298.9 -127.2,298.9 -123.7,305.4 -120.9,305.4 -125.2,297.4 -121.4,290.3 -124,290.3 -127.1,296.1 "
   style="fill:#00a0be" />
</g>
</svg>