<svg xmlns="http://www.w3.org/2000/svg" viewBox="0 0 690.66 106.44"><title>logo-horizontal-color</title><polygon points="159.15 88.72 159.15 71 141.44 71 123.72 71 123.72 53.29 123.72 35.57 106 35.57 106 53.29 106 53.29 106 71 106 88.72 123.72 88.72 141.44 88.72 159.15 88.72" style="fill:#80c342"/><polygon points="230.33 88.69 230.33 70.97 230.33 53.25 230.33 35.54 212.61 35.54 212.61 53.25 212.61 70.97 194.89 70.97 194.89 53.25 194.89 35.54 177.18 35.54 177.18 53.25 177.18 70.97 177.18 88.69 194.89 88.69 212.61 88.69 230.33 88.69" style="fill:#458137"/><polygon points="300.88 88.72 300.88 71 300.88 53.29 300.88 35.57 283.17 35.57 265.45 35.57 247.74 35.57 247.74 53.29 265.45 53.29 283.17 53.29 283.17 71 265.45 71 247.74 71 247.74 88.72 247.74 106.44 265.45 106.44 265.45 88.72 283.17 88.72 300.88 88.72" style="fill:#80c342"/><path d="M335.94,36.85H319.46v51.9h16.48Z" transform="translate(0.06 -0.67)" style="fill:#80c342"/><path d="M335.94,36.85v-.62h-17.1V89.38h17.72V36.23h-.62v.62h-.63v51.9h.63v-.62H319.46v.62h.63V36.85h-.63v.63h16.48v-.63h0" transform="translate(0.06 -0.67)" style="fill:#80c342"/><path d="M87.91,36.85H71.43v51.9H87.91Z" transform="translate(0.06 -0.67)" style="fill:#80c342"/><path d="M87.91,36.85v-.62H70.81V89.38H88.53V36.23h-.62v.62h-.63v51.9h.63v-.62H71.43v.62h.63V36.85h-.63v.63H87.91v-.63h0" transform="translate(0.06 -0.67)" style="fill:#80c342"/><path d="M371.37,36.85H354.9v51.9h16.47Z" transform="translate(0.06 -0.67)" style="fill:#80c342"/><path d="M371.37,36.85v-.62h-17.1V89.38H372V36.23h-.63v.62h-.62v51.9h.62v-.62H354.9v.62h.62V36.85h-.62v.63h16.47v-.63h0" transform="translate(0.06 -0.67)" style="fill:#80c342"/><path d="M406.8,36.85H390.33v51.9H406.8Z" transform="translate(0.06 -0.67)" style="fill:#80c342"/><path d="M406.8,36.85v-.62H389.7V89.38h17.73V36.23h-.63v.62h-.62v51.9h.62v-.62H390.33v.62H391V36.85h-.62v.63H406.8v-.63h0" transform="translate(0.06 -0.67)" style="fill:#80c342"/><path d="M442.24,36.85H425.76v51.9h16.48Z" transform="translate(0.06 -0.67)" style="fill:#80c342"/><path d="M442.24,36.85v-.62h-17.1V89.38h17.72V36.23h-.62v.62h-.63v51.9h.63v-.62H425.76v.62h.63V36.85h-.63v.63h16.48v-.63h0" transform="translate(0.06 -0.67)" style="fill:#80c342"/><path d="M477.67,36.85H461.2v51.9h16.47Z" transform="translate(0.06 -0.67)" style="fill:#80c342"/><path d="M477.67,36.85v-.62h-17.1V89.38H478.3V36.23h-.63v.62h-.62v51.9h.62v-.62H461.2v.62h.62V36.85h-.62v.63h16.47v-.63h0" transform="translate(0.06 -0.67)" style="fill:#80c342"/><path d="M52.47,36.85H36v51.9H52.47Z" transform="translate(0.06 -0.67)" style="fill:#80c342"/><path d="M52.47,36.85v-.62H35.37V89.38H53.1V36.23h-.63v.62h-.62v51.9h.62v-.62H36v.62h.62V36.85H36v.63H52.47v-.63h0" transform="translate(0.06 -0.67)" style="fill:#80c342"/><path d="M17,36.85H.57v51.9H17Z" transform="translate(0.06 -0.67)" style="fill:#80c342"/><path d="M17,36.85v-.62H-.06V89.38H17.67V36.23H17v.62h-.62v51.9H17v-.62H.57v.62h.62V36.85H.57v.63H17v-.63h0" transform="translate(0.06 -0.67)" style="fill:#80c342"/><path d="M690,36.85H673.5v51.9H690Z" transform="translate(0.06 -0.67)" style="fill:#80c342"/><path d="M690,36.85v-.62h-17.1V89.38H690.6V36.23H690v.62h-.62v51.9H690v-.62H673.5v.62h.62V36.85h-.62v.63H690v-.63h0" transform="translate(0.06 -0.67)" style="fill:#80c342"/><path d="M654.54,36.85H638.06v51.9h16.48Z" transform="translate(0.06 -0.67)" style="fill:#80c342"/><path d="M654.54,36.85v-.62h-17.1V89.38h17.72V36.23h-.62v.62h-.63v51.9h.63v-.62H638.06v.62h.63V36.85h-.63v.63h16.48v-.63h0" transform="translate(0.06 -0.67)" style="fill:#80c342"/><path d="M619.11,36.85H602.63v51.9h16.48Z" transform="translate(0.06 -0.67)" style="fill:#80c342"/><path d="M619.11,36.85v-.62H602V89.38h17.72V36.23h-.62v.62h-.63v51.9h.63v-.62H602.63v.62h.63V36.85h-.63v.63h16.48v-.63h0" transform="translate(0.06 -0.67)" style="fill:#80c342"/><path d="M583.67,36.85H567.2v51.9h16.47Z" transform="translate(0.06 -0.67)" style="fill:#80c342"/><path d="M583.67,36.85v-.62h-17.1V89.38H584.3V36.23h-.63v.62h-.62v51.9h.62v-.62H567.2v.62h.62V36.85h-.62v.63h16.47v-.63h0" transform="translate(0.06 -0.67)" style="fill:#80c342"/><path d="M548.24,36.85H531.76v51.9h16.48Z" transform="translate(0.06 -0.67)" style="fill:#80c342"/><path d="M548.24,36.85v-.62h-17.1V89.38h17.72V36.23h-.62v.62h-.63v51.9h.63v-.62H531.76v.62h.63V36.85h-.63v.63h16.48v-.63h0" transform="translate(0.06 -0.67)" style="fill:#80c342"/><path d="M512.81,36.85H496.33v51.9h16.48Z" transform="translate(0.06 -0.67)" style="fill:#80c342"/><path d="M512.81,36.85v-.62h-17.1V89.38h17.72V36.23h-.62v.62h-.63v51.9h.63v-.62H496.33v.62H497V36.85h-.63v.63h16.48v-.63h0" transform="translate(0.06 -0.67)" style="fill:#80c342"/><path d="M249.94,1V19.18h10.71V16.75h-7.82V1ZM264,1V11.6c0,2.7.11,3.46.58,4.52,1,2.13,3.29,3.38,6.26,3.38s5.29-1.25,6.27-3.38c.47-1,.57-1.82.57-4.52V1h-2.8V11.55a10.3,10.3,0,0,1-.25,3.1c-.46,1.53-1.85,2.4-3.79,2.4a3.74,3.74,0,0,1-3.54-1.83c-.41-.76-.49-1.44-.49-3.67V1Zm22.13,7.55V3.43h8V1H283.35V19.18h2.8V11h7.3V8.55ZM296.62,1V3.43h4.74V19.18h2.8V3.43H309V1ZM313,1V19.18h3.76c3.16,0,4.06-.09,5.29-.47A4.78,4.78,0,0,0,325.25,14c0-2.46-1.28-3.93-4-4.55a3.73,3.73,0,0,0,3-3.93,4.18,4.18,0,0,0-2.81-4.11A13.33,13.33,0,0,0,317.13,1Zm2.75,7.58V3.32h1.45a8.06,8.06,0,0,1,3,.32,2.34,2.34,0,0,1,1.33,2.24,2.43,2.43,0,0,1-1.22,2.26,6.36,6.36,0,0,1-2.92.44Zm0,8.28v-6h1.75a8.61,8.61,0,0,1,3.16.32,2.72,2.72,0,0,1,1.69,2.7A2.67,2.67,0,0,1,321,16.45c-.71.33-1.47.41-3.52.41Zm16.95,2.32V1h-2.83V19.18ZM338.58,1V19.18h10.71V16.75h-7.82V1Zm14.88,0V19.18h3.3c3.78,0,5-.19,6.56-1.07,2.54-1.39,4.06-4.44,4.06-8s-1.63-6.7-4.22-8.09c-1.39-.73-2.94-1-6-1Zm2.8,15.75V3.43h.8c3,0,3.73.13,4.82.81,1.66,1,2.59,3.11,2.59,5.83s-.88,4.8-2.4,5.81c-1,.68-2,.87-4.33.87ZM380.13,1V11.6c0,2.7.11,3.46.58,4.52,1,2.13,3.29,3.38,6.27,3.38s5.28-1.25,6.26-3.38c.47-1,.58-1.82.58-4.52V1H391V11.55a10.3,10.3,0,0,1-.25,3.1c-.46,1.53-1.85,2.4-3.78,2.4a3.75,3.75,0,0,1-3.55-1.83c-.41-.76-.49-1.44-.49-3.67V1Zm19.33,0V19.18H402V4.11l4.47,15.07h2.89l4.5-15.07V19.18h2.59V1h-4L408,16.12,403.49,1Zm21,0L425,19.23h3.14l3.24-12.94,3.27,12.94h3.13L442.27,1h-2.59l-3.55,14.8L432.59,1h-2.42L426.6,15.8,423.11,1Zm28.59,7.55V3.43h8V1H446.24V19.18h11V16.75h-8.17V11h7.3V8.55ZM461.77,1V19.18h10.71V16.75h-7.82V1Zm11.34,0V3.43h4.74V19.18h2.81V3.43h4.79V1Zm24.55,0V19.18h2.81V12.12h1.2a14.13,14.13,0,0,0,4.82-.49,5,5,0,0,0,3.22-5,5.09,5.09,0,0,0-3.3-5.12,14.84,14.84,0,0,0-5.1-.52Zm2.81,8.69V3.43h1.17a8.85,8.85,0,0,1,3.63.43,2.86,2.86,0,0,1,1.52,2.75,2.7,2.7,0,0,1-1.88,2.81,10.5,10.5,0,0,1-3.24.27ZM513.93,1V19.18h10.71V16.75h-7.82V1ZM533.79,1l-6.18,18.23h2.89l1.36-4.25h6.62l1.34,4.25h2.91L536.52,1Zm4,11.55H532.6l2.56-8.17Zm9-11.5V19.18h2.68V5.31l8.09,13.87h2.91V1h-2.67V14.9l-8-13.9Zm19.35,0V11.6c0,2.7.11,3.46.57,4.52,1,2.13,3.3,3.38,6.27,3.38s5.29-1.25,6.27-3.38c.46-1,.57-1.82.57-4.52V1H577V11.55a10.3,10.3,0,0,1-.25,3.1c-.46,1.53-1.85,2.4-3.79,2.4a3.74,3.74,0,0,1-3.54-1.83c-.41-.76-.49-1.44-.49-3.67V1Zm19.32,0V19.18h2.67V5.31l8.1,13.87h2.91V1h-2.67V14.9l-8-13.9Zm26.82,9v2.2h3.68v3.71a7.71,7.71,0,0,1-4,1.17c-3.27,0-5.18-2.56-5.18-7s1.85-6.94,5-6.94c2.18,0,3.43,1.11,3.84,3.35h2.51A6.49,6.49,0,0,0,616.88,3a6.45,6.45,0,0,0-5.2-2.29c-4.75,0-7.85,3.71-7.85,9.4s3.1,9.43,8.12,9.43a10.79,10.79,0,0,0,6.38-2V10Z" transform="translate(0.06 -0.67)" style="fill:#458137"/></svg>