<svg xmlns="http://www.w3.org/2000/svg" width="261.432" height="134.683" viewBox="0 0 261.432 134.683">
  <path id="Path_4020" data-name="Path 4020" d="M317.186,264.176a4.982,4.982,0,0,1,1.586-3.822,6.193,6.193,0,0,1,8.02,0,4.982,4.982,0,0,1,1.586,3.822v1.01H317.186Zm-6.334-1.952a18.945,18.945,0,0,0-.928,6.1,20.212,20.212,0,0,0,.874,6.115,13.644,13.644,0,0,0,2.521,4.722,11.37,11.37,0,0,0,4.036,3.058,12.853,12.853,0,0,0,5.414,1.093,13.318,13.318,0,0,0,8.539-2.634,11.009,11.009,0,0,0,4-7.384h-6.989a5,5,0,0,1-1.725,3.384,5.67,5.67,0,0,1-3.747,1.2,6.019,6.019,0,0,1-3.984-1.406,4.889,4.889,0,0,1-1.682-3.972v-1.882H335.53V267.1a16.227,16.227,0,0,0-.887-5.433,12.343,12.343,0,0,0-2.57-4.327,12.034,12.034,0,0,0-4.044-2.851,12.952,12.952,0,0,0-5.26-1.039,12.7,12.7,0,0,0-5.264,1.065,11.468,11.468,0,0,0-4.049,3.016,13.932,13.932,0,0,0-2.6,4.7m-2.48-8.095H292.456v28.5h6.989V259.591h8.927Zm-73.906,49.181H218.55v28.5h6.989V308.77h8.927Zm-56.2-9.527-13.7,17.743,14.66,20.284h8.38l-15.042-20.284,14.251-17.743Zm-13.812,0H157.2v38.027h7.26Zm0-49.181h-7.262V282.63h23.367v-6.143H164.457Zm.178-33.035a4.071,4.071,0,0,1-1.353-3.311,3.77,3.77,0,0,1,1.734-3.269,8.257,8.257,0,0,1,4.763-1.2,12.416,12.416,0,0,1,2.484.246,5.977,5.977,0,0,1,2.158.887,5.394,5.394,0,0,1,1.6,1.706,6.31,6.31,0,0,1,.8,2.621h7.262a13.384,13.384,0,0,0-1.447-5.131,10.848,10.848,0,0,0-3.016-3.577,12.471,12.471,0,0,0-4.342-2.06,20.769,20.769,0,0,0-5.392-.669,19.8,19.8,0,0,0-5.759.778,13.3,13.3,0,0,0-4.355,2.171A9.818,9.818,0,0,0,157,204.088a9.237,9.237,0,0,0-.982,4.231,10.722,10.722,0,0,0,2.266,6.975,12.792,12.792,0,0,0,6.961,4.027l7.425,1.965a8.548,8.548,0,0,1,3.849,1.858,4.581,4.581,0,0,1-.928,7.056,10.2,10.2,0,0,1-5.378,1.324,9.634,9.634,0,0,1-5.487-1.434,6.415,6.415,0,0,1-2.566-4.79H154.9a13.6,13.6,0,0,0,1.474,5.624,10.991,10.991,0,0,0,3.3,3.779,13.781,13.781,0,0,0,4.75,2.13,24.507,24.507,0,0,0,5.9.669,21.953,21.953,0,0,0,5.965-.765,14.213,14.213,0,0,0,4.668-2.21,9.838,9.838,0,0,0,4.081-8.217q0-4.707-2.5-7.305a15.462,15.462,0,0,0-7.352-3.886l-6.471-1.685a10.754,10.754,0,0,1-4.085-1.865m35.528,58.717V271.4a7.024,7.024,0,0,1-1.543,4.587,5.145,5.145,0,0,1-4.216,1.892,6.312,6.312,0,0,1-3.031-.639,2.065,2.065,0,0,1-1.174-1.921v-2.452a1.646,1.646,0,0,1,1.584-1.852Zm-8.953-16.223a11.432,11.432,0,0,0-3.768,1.788,8.67,8.67,0,0,0-3.549,7.043h6.989a3.534,3.534,0,0,1,1.339-2.99,5.543,5.543,0,0,1,3.466-1.024,4.966,4.966,0,0,1,3.275,1,3.973,3.973,0,0,1,1.2,3.234v1.856l-7.889.658a10.535,10.535,0,0,0-6.934,2.921,8.348,8.348,0,0,0-2.4,5.976,9.03,9.03,0,0,0,.667,3.549,8.207,8.207,0,0,0,1.9,2.758,8.921,8.921,0,0,0,2.853,1.828,9.516,9.516,0,0,0,3.59.656,9.347,9.347,0,0,0,5.337-1.378,10.025,10.025,0,0,0,3.262-3.727h.245l.054,4.422h11V277.2h-4.8V263.22q0-4.8-2.977-7.289t-8.106-2.484a17.44,17.44,0,0,0-4.75.615m4.2-27.752v-7.836a5.3,5.3,0,0,1,1.56-4.2,5.433,5.433,0,0,1,3.695-1.365,5.712,5.712,0,0,1,3.545,1.065,5.163,5.163,0,0,1,1.683,3.794h6.989a12.383,12.383,0,0,0-1.271-4.655,9.539,9.539,0,0,0-2.679-3.207,11.156,11.156,0,0,0-3.7-1.843,15.5,15.5,0,0,0-4.291-.587,12.946,12.946,0,0,0-5.29,1.037,11.225,11.225,0,0,0-4.021,2.99,13.538,13.538,0,0,0-2.578,4.75,22.554,22.554,0,0,0-.082,12.324,12.76,12.76,0,0,0,2.469,4.642,11.482,11.482,0,0,0,4.049,3.029,13.386,13.386,0,0,0,5.59,1.093,14.512,14.512,0,0,0,4.415-.656,11.241,11.241,0,0,0,3.687-1.965,10.059,10.059,0,0,0,2.638-3.262,12.841,12.841,0,0,0,1.284-4.629h-6.987a5.83,5.83,0,0,1-1.683,3.959,5.655,5.655,0,0,1-3.708,1.119,5.162,5.162,0,0,1-3.832-1.489,5.568,5.568,0,0,1-1.479-4.107M195,314.368v-1.011a4.975,4.975,0,0,1,1.588-3.822,6.191,6.191,0,0,1,8.018,0,4.981,4.981,0,0,1,1.588,3.822v1.011Zm0,5.431h18.345v-3.521a16.174,16.174,0,0,0-.889-5.433,12.367,12.367,0,0,0-2.568-4.327,12.046,12.046,0,0,0-4.045-2.853,12.946,12.946,0,0,0-5.26-1.037,12.69,12.69,0,0,0-5.262,1.065,11.431,11.431,0,0,0-4.049,3.016,13.967,13.967,0,0,0-2.606,4.7,19,19,0,0,0-.926,6.1,20.214,20.214,0,0,0,.872,6.115,13.663,13.663,0,0,0,2.523,4.722,11.351,11.351,0,0,0,4.036,3.058,12.874,12.874,0,0,0,5.412,1.093,13.325,13.325,0,0,0,8.541-2.636,11.006,11.006,0,0,0,4-7.384H206.14a5.017,5.017,0,0,1-1.725,3.386,5.688,5.688,0,0,1-3.749,1.2,6.011,6.011,0,0,1-3.982-1.406A4.885,4.885,0,0,1,195,321.682Zm40.175-83.142h6.989V217.983q0-4.912-2.267-7.71t-7.069-2.8a9.613,9.613,0,0,0-5.092,1.256,9.441,9.441,0,0,0-3.344,3.549V198.629H217.4v38.027h6.989V220.167a7.591,7.591,0,0,1,1.623-5.063,5.6,5.6,0,0,1,4.518-1.925,4.229,4.229,0,0,1,3.577,1.393,6.3,6.3,0,0,1,1.065,3.9Zm13.132,0H255.3V198.629h-6.989Zm.109,45.974h6.989V263.959q0-4.915-2.2-7.712t-6.565-2.8a9.182,9.182,0,0,0-8.681,5.324,8.084,8.084,0,0,0-2.934-3.944,8.659,8.659,0,0,0-5.065-1.38,8.412,8.412,0,0,0-4.735,1.256,9.545,9.545,0,0,0-3.125,3.549V254.13h-6.989v28.5H222.1V266.141a7.9,7.9,0,0,1,1.528-5.063,4.907,4.907,0,0,1,4.04-1.923h.054q4.041,0,4.04,5.3v18.18h6.989V266.141a7.851,7.851,0,0,1,1.543-5.063,4.942,4.942,0,0,1,4.053-1.923h.056q4.013,0,4.012,5.3Zm14.836,30.508q0-4.912-2.265-7.71t-7.071-2.8a9.617,9.617,0,0,0-5.092,1.256,9.435,9.435,0,0,0-3.343,3.549v-4.122h-6.989v28.5h6.989V315.322a7.581,7.581,0,0,1,1.624-5.063,5.592,5.592,0,0,1,4.518-1.925,4.229,4.229,0,0,1,3.577,1.393,6.307,6.307,0,0,1,1.065,3.9v18.182h6.987Zm-1.031-108.285h7.206v-6.224h-7.206Zm7.1,3.3H262.33v28.5h6.989Zm5.3,50.724a6.018,6.018,0,0,1,4.312,1.474,5.227,5.227,0,0,1,1.556,3.985v8.053a5.249,5.249,0,0,1-1.569,4,5.988,5.988,0,0,1-4.3,1.489q-3.357,0-4.887-2.006a8.632,8.632,0,0,1-1.528-5.365v-4.257a8.633,8.633,0,0,1,1.528-5.365q1.53-2,4.887-2.006m1.91-5.433a9.617,9.617,0,0,0-4.927,1.2,9.8,9.8,0,0,0-3.4,3.329V254.13h-6.989v38H268.2V278.781a9.771,9.771,0,0,0,3.412,3.329,9.635,9.635,0,0,0,4.913,1.2,9.874,9.874,0,0,0,8.49-4.368,14.287,14.287,0,0,0,2.06-4.722,24.255,24.255,0,0,0,.669-5.841,24.516,24.516,0,0,0-.669-5.828,14.1,14.1,0,0,0-2.06-4.75,10.275,10.275,0,0,0-3.522-3.181,10.132,10.132,0,0,0-4.968-1.174m5.153-27.137v-7.836a5.292,5.292,0,0,1,1.56-4.2,5.426,5.426,0,0,1,3.695-1.365,5.705,5.705,0,0,1,3.543,1.065,5.156,5.156,0,0,1,1.684,3.794h6.989a12.314,12.314,0,0,0-1.271-4.655A9.518,9.518,0,0,0,295.2,209.9a11.139,11.139,0,0,0-3.7-1.843,15.494,15.494,0,0,0-4.289-.587,12.933,12.933,0,0,0-5.29,1.037,11.215,11.215,0,0,0-4.023,2.99,13.539,13.539,0,0,0-2.578,4.75,22.555,22.555,0,0,0-.082,12.324,12.759,12.759,0,0,0,2.469,4.642,11.5,11.5,0,0,0,4.049,3.029,13.4,13.4,0,0,0,5.592,1.093,14.508,14.508,0,0,0,4.413-.656,11.269,11.269,0,0,0,3.689-1.965,10.079,10.079,0,0,0,2.636-3.262,12.843,12.843,0,0,0,1.286-4.629h-6.989a5.822,5.822,0,0,1-1.683,3.959,5.652,5.652,0,0,1-3.708,1.119,5.168,5.168,0,0,1-3.832-1.489,5.567,5.567,0,0,1-1.477-4.107m39.761,10.346h6.989V217.983q0-4.912-2.266-7.71t-7.069-2.8A9.613,9.613,0,0,0,314,208.73a9.441,9.441,0,0,0-3.344,3.549V198.629h-6.989v38.027h6.989V220.167a7.582,7.582,0,0,1,1.625-5.063,5.593,5.593,0,0,1,4.518-1.925,4.223,4.223,0,0,1,3.575,1.393,6.3,6.3,0,0,1,1.065,3.9Zm16.081,0H351.61v-5.433h-7.1V213.561h7.1v-5.4h-7.1v-9.527h-6.989v9.527h-5.65v5.4h5.65Zm8.993,35.628V264.45a5.3,5.3,0,0,1,1.56-4.2,5.433,5.433,0,0,1,3.695-1.365,5.712,5.712,0,0,1,3.545,1.065A5.174,5.174,0,0,1,357,263.739h6.989a12.382,12.382,0,0,0-1.271-4.655,9.537,9.537,0,0,0-2.679-3.207,11.156,11.156,0,0,0-3.7-1.843,15.561,15.561,0,0,0-4.291-.587,12.944,12.944,0,0,0-5.29,1.039,11.244,11.244,0,0,0-4.023,2.988,13.568,13.568,0,0,0-2.576,4.75,22.561,22.561,0,0,0-.082,12.326,12.776,12.776,0,0,0,2.467,4.64,11.488,11.488,0,0,0,4.051,3.029,13.357,13.357,0,0,0,5.59,1.093,14.489,14.489,0,0,0,4.413-.656,11.23,11.23,0,0,0,3.689-1.965,10.108,10.108,0,0,0,2.638-3.262,12.841,12.841,0,0,0,1.284-4.627h-6.989a5.821,5.821,0,0,1-1.684,3.957,5.647,5.647,0,0,1-3.708,1.119,5.161,5.161,0,0,1-3.832-1.489,5.575,5.575,0,0,1-1.477-4.107M386.28,282.63h6.989V263.959q0-4.915-2.267-7.712t-7.071-2.8a9.624,9.624,0,0,0-5.09,1.256,9.454,9.454,0,0,0-3.344,3.549V244.6h-6.989V282.63H375.5V266.141a7.594,7.594,0,0,1,1.624-5.063,5.594,5.594,0,0,1,4.518-1.923,4.228,4.228,0,0,1,3.577,1.391,6.314,6.314,0,0,1,1.065,3.9Zm22.957-5.433V259.534h7.1v-5.4h-7.1V244.6h-6.989v9.527H396.6v5.4h5.65v23.1h14.086V277.2Z" transform="translate(-154.902 -197.81)"/>
</svg>
