<?xml version="1.0" encoding="UTF-8" standalone="no"?>
<!DOCTYPE svg PUBLIC "-//W3C//DTD SVG 20010904//EN" "http://www.w3.org/TR/2001/REC-SVG-20010904/DTD/svg10.dtd">
<svg version="1.0" xmlns="http://www.w3.org/2000/svg" width="1280.000000pt" height="1230.000000pt" viewBox="0 0 1280.000000 1230.000000" preserveAspectRatio="xMidYMid meet">
<metadata>
Created by potrace 1.15, written by Peter Selinger 2001-2017
</metadata>
<g transform="translate(0.000000,1230.000000) scale(0.100000,-0.100000)" fill="#000000" stroke="none">
<path d="M6195 12285 c-418 -66 -763 -360 -894 -761 -79 -243 -69 -530 27 -766 l39 -94 -1383 -2393 c-760 -1316 -1385 -2395 -1388 -2399 -4 -3 -359 346 -789 776 l-782 782 -504 -504 c-354 -354 -505 -511 -507 -528 -2 -21 151 -178 907 -934 500 -500 909 -912 909 -915 0 -4 -362 -634 -805 -1400 l-806 -1394 26 -22 c14 -13 29 -23 34 -23 9 0 246 257 385 418 149 173 307 371 563 707 255 335 334 429 405 486 83 65 125 83 194 83 52 0 72 -6 137 -42 l77 -41 38 52 c84 113 155 219 257 382 58 94 110 171 113 173 4 1 891 -882 1972 -1963 1081 -1081 1972 -1965 1980 -1965 8 0 899 884 1980 1965 1081 1081 1968 1965 1971 1965 4 0 26 -33 49 -72 53 -90 252 -391 314 -475 l46 -62 72 39 c123 66 186 63 297 -11 86 -57 183 -171 489 -572 340 -446 510 -651 830 -996 l68 -75 32 23 c28 19 31 25 21 44 -7 11 -369 639 -805 1395 -437 755 -794 1376 -794 1380 0 4 412 419 915 922 503 503 915 919 915 925 0 6 -230 240 -510 520 l-510 510 -786 -785 c-432 -432 -788 -780 -790 -775 -2 6 -635 1101 -1405 2435 l-1402 2425 23 64 c86 241 91 490 14 733 -106 335 -387 616 -722 722 -170 53 -350 68 -517 41z m743 -3615 c517 -895 529 -915 563 -922 19 -4 69 -12 112 -18 339 -49 691 -320 1060 -814 234 -314 485 -738 852 -1436 l108 -205 -1614 -1607 c-888 -884 -1616 -1608 -1619 -1608 -3 0 -730 726 -1617 1612 l-1612 1613 95 180 c542 1023 813 1445 1154 1798 271 281 517 430 767 467 43 6 93 14 112 18 33 7 47 30 564 925 292 505 534 916 538 915 5 -2 246 -415 537 -918z"/>
</g>
</svg>