<?xml version="1.0" encoding="UTF-8"?>
<svg xmlns="http://www.w3.org/2000/svg" id="Ebene_2" data-name="Ebene 2" viewBox="0 0 535.64 195.29">
  <defs>
    <style>
      .wvi-1 {
        fill: #86bc25;
      }

      .wvi-1, .wvi-2, .wvi-3 {
        stroke-width: 0px;
      }

      .wvi-2 {
        fill: #717776;
      }

      .wvi-3 {
        fill-rule: evenodd;
      }
    </style>
  </defs>
  <g id="Ebene_1-2" data-name="Ebene 1">
    <g>
      <g>
        <g>
          <path class="wvi-2" d="m156.14,146.65h4.73v47.81h-4.73v-47.81Z"></path>
          <path class="wvi-2" d="m171.96,167.75c0-2.67,0-5.41-.27-8.22h4.18v6.23h.14c1.44-3.15,4.04-7.06,11.3-7.06,8.63,0,11.92,5.76,11.92,13.43v22.33h-4.32v-21.24c0-6.58-2.33-10.83-8.29-10.83-7.88,0-10.34,6.92-10.34,12.74v19.32h-4.32v-26.7h0Z"></path>
          <path class="wvi-2" d="m213.46,163.22h-7.06v-3.7h7.06v-2.53c0-7.33.27-14.73,9.25-14.73,1.37,0,3.22.2,4.04.68l-.27,3.77c-.89-.48-2.19-.75-3.43-.75-5.89,0-5.27,6.37-5.27,10.55v3.01h7.88v3.7h-7.88v31.24h-4.32v-31.24Z"></path>
          <path class="wvi-2" d="m233.8,167.33c0-3.83,0-5.27-.27-7.81h4.32v6.71h.14c1.57-3.9,4.52-7.54,8.97-7.54,1.03,0,2.26.21,3.01.41v4.52c-.89-.27-2.05-.41-3.15-.41-6.85,0-8.7,7.67-8.7,13.97v17.26h-4.32v-27.11h0Z"></path>
          <path class="wvi-2" d="m277.16,188.85h-.14c-1.92,4.18-6.78,6.44-11.1,6.44-9.93,0-11.51-6.71-11.51-9.86,0-11.71,12.47-12.26,21.51-12.26h.82v-1.78c0-5.96-2.12-8.97-7.95-8.97-3.63,0-7.06.82-10.27,2.88v-4.18c2.67-1.3,7.19-2.4,10.27-2.4,8.63,0,12.26,3.9,12.26,13.02v15.41c0,2.81,0,4.93.34,7.33h-4.25v-5.63h.02Zm-.41-12h-1.24c-7.47,0-16.37.76-16.37,8.43,0,4.59,3.29,6.3,7.26,6.3,10.14,0,10.34-8.84,10.34-12.61v-2.12h0Z"></path>
          <path class="wvi-2" d="m289.14,189.39c2.6,1.3,5.76,2.19,9.11,2.19,4.11,0,7.74-2.26,7.74-6.24,0-8.29-16.78-6.99-16.78-17.12,0-6.92,5.62-9.52,11.37-9.52,1.85,0,5.55.41,8.64,1.58l-.41,3.76c-2.26-1.03-5.35-1.64-7.74-1.64-4.46,0-7.54,1.37-7.54,5.83,0,6.51,17.19,5.69,17.19,17.12,0,7.4-6.92,9.93-12.2,9.93-3.35,0-6.71-.41-9.79-1.64l.41-4.25Z"></path>
          <path class="wvi-2" d="m334,163.22h-7.94v22.61c0,3.15,1.16,5.76,4.65,5.76,1.64,0,2.74-.34,3.97-.82l.27,3.56c-1.03.41-3.15.96-5.28.96-7.67,0-7.94-5.28-7.94-11.64v-20.42h-6.85v-3.7h6.85v-8.43l4.32-1.51v9.93h7.94v3.7h.01Z"></path>
          <path class="wvi-2" d="m342.22,167.33c0-3.83,0-5.27-.27-7.81h4.32v6.71h.13c1.57-3.9,4.52-7.54,8.98-7.54,1.02,0,2.26.21,3.01.41v4.52c-.89-.27-2.05-.41-3.15-.41-6.85,0-8.7,7.67-8.7,13.97v17.26h-4.32v-27.11h0Z"></path>
          <path class="wvi-2" d="m392.77,186.24c0,2.67,0,5.41.27,8.22h-4.18v-6.23h-.14c-1.43,3.15-4.04,7.06-11.3,7.06-8.64,0-11.92-5.76-11.92-13.43v-22.33h4.31v21.24c0,6.58,2.33,10.83,8.29,10.83,7.88,0,10.34-6.92,10.34-12.74v-19.32h4.32v26.7h.01Z"></path>
          <path class="wvi-2" d="m404.06,143.08h4.31v30.76l15.62-14.32h5.55l-17.05,15.48,19.11,19.45h-5.96l-17.26-17.95v17.95h-4.31v-51.37h-.01Z"></path>
          <path class="wvi-2" d="m453.85,163.22h-7.95v22.61c0,3.15,1.17,5.76,4.66,5.76,1.64,0,2.74-.34,3.97-.82l.27,3.56c-1.03.41-3.16.96-5.28.96-7.67,0-7.95-5.28-7.95-11.64v-20.42h-6.84v-3.7h6.84v-8.43l4.32-1.51v9.93h7.95v3.7h.01Z"></path>
          <path class="wvi-2" d="m489.33,186.24c0,2.67,0,5.41.27,8.22h-4.18v-6.23h-.14c-1.43,3.15-4.04,7.06-11.3,7.06-8.64,0-11.92-5.76-11.92-13.43v-22.33h4.31v21.24c0,6.58,2.33,10.83,8.29,10.83,7.88,0,10.34-6.92,10.34-12.74v-19.32h4.32v26.7h0Z"></path>
          <path class="wvi-2" d="m500.63,167.33c0-3.83,0-5.27-.28-7.81h4.32v6.71h.14c1.57-3.9,4.52-7.54,8.97-7.54,1.03,0,2.26.21,3.02.41v4.52c-.89-.27-2.06-.41-3.15-.41-6.85,0-8.71,7.67-8.71,13.97v17.26h-4.31v-27.11h0Z"></path>
        </g>
        <path class="wvi-2" d="m339.73,126.61h-5.07l-17.82-47.81h5l15.42,43.09,15.96-43.09h4.66l-18.15,47.81Z"></path>
        <g>
          <path class="wvi-2" d="m382.7,125.51c-3.02,1.23-6.92,1.92-10.14,1.92-11.57,0-15.89-7.81-15.89-18.29s5.89-18.29,14.73-18.29c9.86,0,13.9,7.95,13.9,17.33v2.19h-23.9c0,7.4,3.97,13.36,11.5,13.36,3.15,0,7.74-1.3,9.8-2.6v4.38h0Zm-2.13-18.83c0-6.1-2.46-12.13-8.9-12.13s-10.27,6.37-10.27,12.13h19.17Z"></path>
          <path class="wvi-2" d="m392.83,99.48c0-3.84,0-5.27-.28-7.81h4.32v6.71h.14c1.57-3.9,4.52-7.54,8.97-7.54,1.03,0,2.26.21,3.02.41v4.52c-.89-.27-2.06-.41-3.15-.41-6.85,0-8.7,7.67-8.7,13.97v17.26h-4.31v-27.11h-.01Z"></path>
          <path class="wvi-2" d="m414.95,75.23h4.31v30.76l15.62-14.32h5.55l-17.05,15.48,19.11,19.45h-5.96l-17.26-17.95v17.95h-4.31v-51.37h0Z"></path>
          <path class="wvi-2" d="m471.94,125.51c-3.02,1.23-6.92,1.92-10.14,1.92-11.57,0-15.89-7.81-15.89-18.29s5.89-18.29,14.73-18.29c9.86,0,13.9,7.95,13.9,17.33v2.19h-23.9c0,7.4,3.97,13.36,11.5,13.36,3.15,0,7.74-1.3,9.8-2.6v4.38h0Zm-2.13-18.83c0-6.1-2.46-12.13-8.9-12.13s-10.27,6.37-10.27,12.13h19.17Z"></path>
          <path class="wvi-2" d="m482.07,75.23h4.31v22.33h.14c1.85-3.84,5.75-6.71,10.89-6.71,9.38,0,11.92,6.24,11.92,14.87v20.89h-4.32v-20.83c0-6.03-1.16-11.23-8.29-11.23-7.67,0-10.34,7.26-10.34,13.36v18.7h-4.31v-51.38Z"></path>
          <path class="wvi-2" d="m519.47,99.48c0-3.84,0-5.27-.28-7.81h4.32v6.71h.14c1.57-3.9,4.52-7.54,8.97-7.54,1.03,0,2.26.21,3.02.41v4.52c-.89-.27-2.06-.41-3.15-.41-6.85,0-8.71,7.67-8.71,13.97v17.26h-4.31v-27.11h0Z"></path>
        </g>
      </g>
      <g>
        <polygon class="wvi-1" points="156.4 .04 156.39 127.02 201.93 127.02 267.81 .04 223.18 .04 193.61 69.93 193.64 .04 156.4 .04"></polygon>
        <polygon class="wvi-1" points="273.63 0 317.5 0 290.36 126.95 246.7 126.95 273.63 0"></polygon>
      </g>
      <polygon class="wvi-2" points="0 .03 0 126.98 41.88 126.98 81.87 59.42 81.87 127.01 125.75 127.01 193.68 .03 156.07 .03 115.97 69.3 115.97 .03 78.42 .03 37.96 69.62 37.96 .03 0 .03"></polygon>
      <polygon class="wvi-3" points="156.07 .04 193.67 .04 156.38 69.73 156.07 .04"></polygon>
    </g>
  </g>
</svg>
