<?xml version="1.0" encoding="UTF-8" standalone="no"?>
<svg
   width="1356.8176"
   height="465.8129"
   viewBox="0 0 1356.8176 465.8129"
   version="1.1"
   xml:space="preserve"
   style="clip-rule:evenodd;fill-rule:evenodd;stroke-linejoin:round;stroke-miterlimit:2"
   id="svg14"
   sodipodi:docname="CAIDAS_quer.svg"
   inkscape:version="1.3.2 (091e20e, 2023-11-25)"
   xmlns:inkscape="http://www.inkscape.org/namespaces/inkscape"
   xmlns:sodipodi="http://sodipodi.sourceforge.net/DTD/sodipodi-0.dtd"
   xmlns="http://www.w3.org/2000/svg"
   xmlns:svg="http://www.w3.org/2000/svg"><defs
   id="defs14" /><sodipodi:namedview
   id="namedview14"
   pagecolor="#505050"
   bordercolor="#eeeeee"
   borderopacity="1"
   inkscape:showpageshadow="0"
   inkscape:pageopacity="0"
   inkscape:pagecheckerboard="0"
   inkscape:deskcolor="#505050"
   inkscape:zoom="1.1373333"
   inkscape:cx="658.55803"
   inkscape:cy="233.00117"
   inkscape:window-width="2490"
   inkscape:window-height="1376"
   inkscape:window-x="0"
   inkscape:window-y="0"
   inkscape:window-maximized="1"
   inkscape:current-layer="svg14" />
    <g
   transform="matrix(2.32905,0,0,2.32905,-479.36284,-931.62203)"
   id="g14">
        <g
   id="Logo">
            <g
   id="C"
   transform="matrix(0.666667,0,0,0.666667,162.824,66.6667)">
                <g
   transform="matrix(1.29445,0,0,1.29445,-329.806,-147.224)"
   id="g1">
                    <circle
   cx="420.487"
   cy="615.88"
   r="115.88"
   style="fill:#d8dadc"
   id="circle1" />
                </g>
                <g
   transform="matrix(1.00441,0,0,1.00441,-228.456,10.7984)"
   id="g2">
                    <path
   d="m 544.773,588.01 c -18.805,-40.327 -59.271,-66.107 -103.768,-66.107 -63.192,0 -114.495,51.303 -114.495,114.495 0,63.192 51.303,114.496 114.495,114.496 44.497,0 84.963,-25.78 103.768,-66.108 l -31.13,-14.516 c -13.164,28.229 -41.49,46.275 -72.638,46.275 -44.234,0 -80.147,-35.913 -80.147,-80.147 0,-44.234 35.913,-80.147 80.147,-80.147 31.148,0 59.474,18.046 72.638,46.276 z"
   style="fill:#063d79"
   id="path1" />
                </g>
            </g>
            <g
   transform="translate(-13)"
   id="g7">
                <g
   transform="matrix(146.906,0,0,146.906,411.909,552.22)"
   id="g3">
                    <path
   d="M 0.475,-0.186 H 0.177 L 0.11,0 H 0.014 L 0.285,-0.711 H 0.367 L 0.639,0 H 0.543 Z M 0.206,-0.263 H 0.447 L 0.326,-0.595 Z"
   style="fill:#063d79;fill-rule:nonzero"
   id="path2" />
                </g>
                <g
   transform="matrix(146.906,0,0,146.906,507.742,552.22)"
   id="g4">
                    <rect
   x="0.089000002"
   y="-0.71100003"
   width="0.093999997"
   height="0.71100003"
   style="fill:#063d79;fill-rule:nonzero"
   id="rect3" />
                </g>
                <g
   transform="matrix(0.907853,0,0,1,36.4152,-56.0996)"
   id="g5">
                    <rect
   x="415.819"
   y="628.74597"
   width="132.97701"
   height="8.3330002"
   style="fill:#d8dadc"
   id="rect4" />
                </g>
                <g
   transform="matrix(0.907853,0,0,1,36.4152,-209.1)"
   id="g6">
                    <rect
   x="415.819"
   y="628.74597"
   width="132.97701"
   height="8.3330002"
   style="fill:#d8dadc"
   id="rect5" />
                </g>
            </g>
            <g
   transform="translate(7)"
   id="g13">
                <g
   transform="matrix(130.799,0,0,130.799,616.901,552.22)"
   id="g8">
                    <path
   d="M 0.475,-0.186 H 0.177 L 0.11,0 H 0.014 L 0.285,-0.711 H 0.367 L 0.639,0 H 0.543 Z M 0.206,-0.263 H 0.447 L 0.326,-0.595 Z"
   style="fill:#063d79;fill-rule:nonzero"
   id="path7" />
                </g>
                <g
   transform="matrix(146.906,0,0,146.906,530.251,552.22)"
   id="g9">
                    <path
   d="m 0.083,0 v -0.711 h 0.2 c 0.062,0 0.117,0.014 0.164,0.041 0.048,0.027 0.084,0.066 0.11,0.117 0.026,0.05 0.039,0.108 0.04,0.174 v 0.045 c 0,0.067 -0.013,0.126 -0.039,0.176 C 0.532,-0.107 0.495,-0.069 0.447,-0.042 0.399,-0.014 0.343,-0.001 0.279,0 Z m 0.093,-0.634 v 0.557 h 0.099 c 0.072,0 0.128,-0.022 0.169,-0.067 0.04,-0.045 0.06,-0.109 0.06,-0.192 V -0.377 C 0.504,-0.458 0.485,-0.521 0.447,-0.566 0.409,-0.61 0.355,-0.633 0.286,-0.634 Z"
   style="fill:#063d79;fill-rule:nonzero"
   id="path8" />
                </g>
                <g
   transform="matrix(146.906,0,0,146.906,699.702,552.22)"
   id="g10">
                    <path
   d="M 0.292,-0.317 C 0.212,-0.34 0.153,-0.368 0.116,-0.402 0.08,-0.436 0.062,-0.477 0.062,-0.527 c 0,-0.056 0.022,-0.102 0.067,-0.139 0.044,-0.036 0.103,-0.055 0.174,-0.055 0.049,0 0.093,0.01 0.131,0.029 0.038,0.018 0.068,0.045 0.089,0.078 0.021,0.033 0.031,0.069 0.031,0.109 H 0.46 c 0,-0.043 -0.014,-0.077 -0.041,-0.102 -0.027,-0.024 -0.066,-0.037 -0.116,-0.037 -0.046,0 -0.082,0.011 -0.108,0.031 -0.026,0.02 -0.039,0.049 -0.039,0.085 0,0.029 0.013,0.053 0.037,0.073 0.025,0.02 0.067,0.038 0.126,0.055 0.059,0.017 0.105,0.035 0.138,0.055 0.034,0.02 0.058,0.043 0.074,0.07 0.017,0.027 0.025,0.058 0.025,0.094 0,0.058 -0.023,0.104 -0.068,0.139 C 0.443,-0.008 0.383,0.01 0.308,0.01 0.259,0.01 0.214,0 0.171,-0.018 0.129,-0.037 0.096,-0.063 0.073,-0.095 0.051,-0.128 0.039,-0.165 0.039,-0.206 h 0.094 c 0,0.043 0.016,0.077 0.048,0.102 0.032,0.025 0.074,0.037 0.127,0.037 0.05,0 0.088,-0.01 0.114,-0.03 0.026,-0.02 0.039,-0.048 0.039,-0.083 0,-0.035 -0.012,-0.061 -0.036,-0.08 C 0.4,-0.28 0.356,-0.298 0.292,-0.317 Z"
   style="fill:#063d79;fill-rule:nonzero"
   id="path9" />
                </g>
                <g
   transform="matrix(1.797,0,0,1,-204.852,-56.0996)"
   id="g11">
                    <rect
   x="415.819"
   y="629.078"
   width="132.97701"
   height="7.671"
   style="fill:#d8dadc"
   id="rect10" />
                </g>
                <g
   transform="matrix(1.797,0,0,1,-204.852,-209.1)"
   id="g12">
                    <rect
   x="415.819"
   y="629.078"
   width="132.97701"
   height="7.671"
   style="fill:#d8dadc"
   id="rect11" />
                </g>
            </g>
        </g>
    </g>
</svg>
