<?xml version="1.0" encoding="UTF-8" standalone="no"?>
<!-- Created with Inkscape (http://www.inkscape.org/) -->

<svg
   version="1.1"
   id="svg1"
   width="1338.96"
   height="293.90668"
   viewBox="0 0 1338.96 293.90668"
   sodipodi:docname="efre-foerderhinweis-horizontal.svg"
   inkscape:version="1.3.2 (091e20e, 2023-11-25)"
   xmlns:inkscape="http://www.inkscape.org/namespaces/inkscape"
   xmlns:sodipodi="http://sodipodi.sourceforge.net/DTD/sodipodi-0.dtd"
   xmlns="http://www.w3.org/2000/svg"
   xmlns:svg="http://www.w3.org/2000/svg">
  <defs
     id="defs1" />
  <sodipodi:namedview
     id="namedview1"
     pagecolor="#505050"
     bordercolor="#eeeeee"
     borderopacity="1"
     inkscape:showpageshadow="0"
     inkscape:pageopacity="0"
     inkscape:pagecheckerboard="0"
     inkscape:deskcolor="#505050"
     inkscape:zoom="1.3398459"
     inkscape:cx="669.47996"
     inkscape:cy="147.03183"
     inkscape:window-width="2490"
     inkscape:window-height="1376"
     inkscape:window-x="0"
     inkscape:window-y="0"
     inkscape:window-maximized="1"
     inkscape:current-layer="g1">
    <inkscape:page
       x="0"
       y="0"
       inkscape:label="1"
       id="page1"
       width="1338.96"
       height="293.90668"
       margin="0"
       bleed="0" />
  </sodipodi:namedview>
  <g
     id="g1"
     inkscape:groupmode="layer"
     inkscape:label="1">
    <g
       id="group-R5">
      <path
         id="path2"
         d="M 100.293,101.059 H 3049.74 V 2103.9 H 100.293 V 101.059"
         style="fill:#ffffff;fill-opacity:1;fill-rule:nonzero;stroke:none"
         transform="matrix(0.13333333,0,0,-0.13333333,0,293.90667)" />
      <path
         id="path3"
         d="M 157.012,158.27 H 2993.03 v 1890.7 H 157.012 V 158.27"
         style="fill:#2a3c93;fill-opacity:1;fill-rule:nonzero;stroke:none"
         transform="matrix(0.13333333,0,0,-0.13333333,0,293.90667)" />
      <path
         id="path4"
         d="m 1514.59,1637.02 59.84,43.67 59.85,-43.67 -22.78,70.63 60.79,43.67 h -74.93 l -22.93,71.48 -22.93,-71.56 -74.88,0.08 60.74,-43.67 -22.77,-70.63"
         style="fill:#fbca07;fill-opacity:1;fill-rule:nonzero;stroke:none"
         transform="matrix(0.13333333,0,0,-0.13333333,0,293.90667)" />
      <path
         id="path5"
         d="m 1204.9,1553.82 59.84,43.67 59.81,-43.67 -22.74,70.63 60.75,43.67 h -74.93 l -22.92,71.56 -22.93,-71.64 -74.89,0.08 60.74,-43.67 -22.73,-70.63"
         style="fill:#fbca07;fill-opacity:1;fill-rule:nonzero;stroke:none"
         transform="matrix(0.13333333,0,0,-0.13333333,0,293.90667)" />
      <path
         id="path6"
         d="m 1038.14,1512.57 -22.93,-71.64 -74.874,0.08 60.734,-43.67 -22.765,-70.63 59.835,43.67 59.84,-43.67 -22.77,70.63 60.74,43.67 h -74.88 l -22.93,71.56"
         style="fill:#fbca07;fill-opacity:1;fill-rule:nonzero;stroke:none"
         transform="matrix(0.13333333,0,0,-0.13333333,0,293.90667)" />
      <path
         id="path7"
         d="m 955.023,1061.08 59.807,-43.67 -22.736,70.62 60.736,43.68 h -74.877 l -22.93,71.56 -22.929,-71.72 -74.918,0.16 60.777,-43.68 -22.769,-70.62 59.839,43.67"
         style="fill:#fbca07;fill-opacity:1;fill-rule:nonzero;stroke:none"
         transform="matrix(0.13333333,0,0,-0.13333333,0,293.90667)" />
      <path
         id="path8"
         d="m 1061.07,821.48 -22.93,71.559 -22.93,-71.641 -74.874,0.082 60.734,-43.671 -22.765,-70.629 59.835,43.75 59.84,-43.75 -22.77,70.629 60.74,43.671 h -74.88"
         style="fill:#fbca07;fill-opacity:1;fill-rule:nonzero;stroke:none"
         transform="matrix(0.13333333,0,0,-0.13333333,0,293.90667)" />
      <path
         id="path9"
         d="m 1288.1,594.449 -22.93,71.481 -22.89,-71.559 -74.92,0.078 60.74,-43.668 -22.73,-70.633 59.84,43.672 59.8,-43.672 -22.73,70.633 60.74,43.668 h -74.92"
         style="fill:#fbca07;fill-opacity:1;fill-rule:nonzero;stroke:none"
         transform="matrix(0.13333333,0,0,-0.13333333,0,293.90667)" />
      <path
         id="path10"
         d="m 1597.4,512.18 -22.93,71.558 -22.89,-71.636 -74.92,0.078 60.74,-43.668 -22.73,-70.633 59.84,43.672 59.8,-43.672 -22.77,70.633 60.78,43.668 h -74.92"
         style="fill:#fbca07;fill-opacity:1;fill-rule:nonzero;stroke:none"
         transform="matrix(0.13333333,0,0,-0.13333333,0,293.90667)" />
      <path
         id="path11"
         d="m 1906.7,594.449 -22.89,71.481 -22.97,-71.559 -74.84,0.078 60.7,-43.668 -22.73,-70.633 59.84,43.672 59.84,-43.672 -22.81,70.633 60.78,43.668 h -74.92"
         style="fill:#fbca07;fill-opacity:1;fill-rule:nonzero;stroke:none"
         transform="matrix(0.13333333,0,0,-0.13333333,0,293.90667)" />
      <path
         id="path12"
         d="m 2133.81,821.48 -22.97,71.559 -22.97,-71.641 -74.84,0.082 60.78,-43.671 -22.81,-70.629 59.84,43.75 59.84,-43.75 -22.81,70.629 60.78,43.671 h -74.84"
         style="fill:#fbca07;fill-opacity:1;fill-rule:nonzero;stroke:none"
         transform="matrix(0.13333333,0,0,-0.13333333,0,293.90667)" />
      <path
         id="path13"
         d="M 2290.92,1132.57 H 2216 l -22.97,71.56 -22.89,-71.64 -74.92,0.08 60.78,-43.67 -22.74,-70.63 59.77,43.75 59.84,-43.75 -22.73,70.63 60.78,43.67"
         style="fill:#fbca07;fill-opacity:1;fill-rule:nonzero;stroke:none"
         transform="matrix(0.13333333,0,0,-0.13333333,0,293.90667)" />
      <path
         id="path14"
         d="m 2050.99,1327.65 59.84,43.67 59.85,-43.67 -22.81,70.63 60.78,43.59 h -74.85 l -22.97,71.56 -22.96,-71.64 -74.85,0.08 60.78,-43.59 -22.81,-70.63"
         style="fill:#fbca07;fill-opacity:1;fill-rule:nonzero;stroke:none"
         transform="matrix(0.13333333,0,0,-0.13333333,0,293.90667)" />
      <path
         id="path15"
         d="m 1884.67,1739.6 -22.89,-71.64 -74.92,0.16 60.7,-43.75 -22.73,-70.63 59.92,43.75 59.76,-43.75 -22.73,70.63 60.78,43.75 h -75 l -22.89,71.48"
         style="fill:#fbca07;fill-opacity:1;fill-rule:nonzero;stroke:none"
         transform="matrix(0.13333333,0,0,-0.13333333,0,293.90667)" />
      <path
         id="path16"
         d="m 3404.21,1340 v 465.29 h 93.95 v -206.62 l 189.8,206.62 h 126.31 L 3639.07,1624.06 3823.8,1340 h -121.56 l -127.91,218.36 -76.17,-77.75 V 1340 h -93.95"
         style="fill:#2a3c93;fill-opacity:1;fill-rule:nonzero;stroke:none"
         transform="matrix(0.13333333,0,0,-0.13333333,0,293.90667)" />
      <path
         id="path17"
         d="m 3942.5,1508.54 c 0,-33.44 7.94,-59.05 23.8,-76.82 15.88,-17.77 35.44,-26.66 58.72,-26.66 23.27,0 42.79,8.89 58.56,26.66 15.76,17.77 23.64,43.59 23.64,77.44 0,33.01 -7.88,58.4 -23.64,76.17 -15.77,17.78 -35.29,26.66 -58.56,26.66 -23.28,0 -42.84,-8.88 -58.72,-26.66 -15.86,-17.77 -23.8,-43.37 -23.8,-76.79 z m -91.4,4.75 c 0,29.62 7.29,58.29 21.9,86.01 14.59,27.72 35.27,48.88 62.04,63.47 26.77,14.61 56.65,21.91 89.66,21.91 51,0 92.78,-16.56 125.37,-49.67 32.58,-33.12 48.88,-74.96 48.88,-125.53 0,-50.99 -16.46,-93.26 -49.36,-126.79 -32.9,-33.54 -74.31,-50.31 -124.25,-50.31 -30.89,0 -60.36,6.99 -88.39,20.95 -28.04,13.97 -49.36,34.44 -63.95,61.42 -14.61,26.97 -21.9,59.82 -21.9,98.54"
         style="fill:#2a3c93;fill-opacity:1;fill-rule:nonzero;stroke:none"
         transform="matrix(0.13333333,0,0,-0.13333333,0,293.90667)" />
      <path
         id="path18"
         d="m 4482.37,1340 v 337.06 h 89.18 V 1340 Z m 0,382.77 v 82.52 h 89.18 v -82.52 z m -250.41,-45.71 h 49.51 v 25.39 c 0,28.35 3.01,49.51 9.04,63.48 6.03,13.96 17.14,25.33 33.32,34.12 16.19,8.78 36.66,13.17 61.42,13.17 25.39,0 50.25,-3.81 74.58,-11.42 l -12.05,-62.21 c -14.18,3.38 -27.84,5.08 -40.95,5.08 -12.91,0 -22.17,-3.02 -27.77,-9.05 -5.61,-6.03 -8.41,-17.61 -8.41,-34.76 v -23.8 h 66.65 v -70.15 h -66.65 V 1340 h -89.18 v 266.91 h -49.51 v 70.15"
         style="fill:#2a3c93;fill-opacity:1;fill-rule:nonzero;stroke:none"
         transform="matrix(0.13333333,0,0,-0.13333333,0,293.90667)" />
      <path
         id="path19"
         d="m 4972.4,1340 h -89.18 v 172.02 c 0,36.39 -1.91,59.93 -5.72,70.62 -3.81,10.68 -10,18.99 -18.56,24.92 -8.58,5.92 -18.89,8.89 -30.95,8.89 -15.45,0 -29.31,-4.24 -41.57,-12.7 -12.28,-8.46 -20.69,-19.69 -25.24,-33.65 -4.55,-13.97 -6.82,-39.78 -6.82,-77.44 V 1340 h -89.19 v 337.06 h 82.84 v -49.51 c 29.4,38.09 66.44,57.13 111.08,57.13 19.68,0 37.66,-3.55 53.96,-10.64 16.29,-7.09 28.61,-16.13 36.97,-27.13 8.36,-11 14.18,-23.49 17.46,-37.46 3.27,-13.96 4.92,-33.95 4.92,-59.98 V 1340"
         style="fill:#2a3c93;fill-opacity:1;fill-rule:nonzero;stroke:none"
         transform="matrix(0.13333333,0,0,-0.13333333,0,293.90667)" />
      <path
         id="path20"
         d="m 5248.84,1501.87 c -11.43,-3.81 -29.51,-8.36 -54.27,-13.65 -24.75,-5.29 -40.94,-10.47 -48.56,-15.55 -11.63,-8.26 -17.45,-18.72 -17.45,-31.42 0,-12.49 4.65,-23.28 13.96,-32.38 9.31,-9.09 21.15,-13.64 35.55,-13.64 16.07,0 31.41,5.28 46.02,15.86 10.78,8.04 17.87,17.89 21.26,29.52 2.33,7.61 3.49,22.1 3.49,43.48 z m -119.34,72.36 -80.92,14.6 c 9.09,32.58 24.75,56.7 46.97,72.36 22.22,15.66 55.22,23.49 99.02,23.49 39.78,0 69.4,-4.71 88.87,-14.12 19.46,-9.43 33.16,-21.38 41.1,-35.87 7.93,-14.49 11.9,-41.1 11.9,-79.83 l -0.95,-104.1 c 0,-29.62 1.43,-51.46 4.29,-65.53 2.85,-14.08 8.19,-29.16 16.02,-45.23 h -88.23 c -2.33,5.92 -5.19,14.71 -8.57,26.35 -1.48,5.28 -2.54,8.77 -3.17,10.47 -15.23,-14.82 -31.53,-25.92 -48.88,-33.32 -17.35,-7.41 -35.86,-11.12 -55.54,-11.12 -34.71,0 -62.05,9.42 -82.04,28.25 -20,18.83 -30,42.63 -30,71.41 0,19.05 4.55,36.03 13.65,50.94 9.09,14.92 21.85,26.35 38.24,34.28 16.4,7.94 40.04,14.86 70.94,20.79 41.68,7.82 70.57,15.13 86.64,21.89 v 8.89 c 0,17.15 -4.23,29.37 -12.7,36.66 -8.45,7.3 -24.43,10.96 -47.91,10.96 -15.87,0 -28.26,-3.13 -37.14,-9.37 -8.89,-6.25 -16.08,-17.2 -21.59,-32.85"
         style="fill:#2a3c93;fill-opacity:1;fill-rule:nonzero;stroke:none"
         transform="matrix(0.13333333,0,0,-0.13333333,0,293.90667)" />
      <path
         id="path21"
         d="m 5730.95,1340 h -89.18 v 172.02 c 0,36.39 -1.9,59.93 -5.71,70.62 -3.81,10.68 -10,18.99 -18.57,24.92 -8.57,5.92 -18.88,8.89 -30.95,8.89 -15.44,0 -29.3,-4.24 -41.57,-12.7 -12.27,-8.46 -20.69,-19.69 -25.23,-33.65 -4.55,-13.97 -6.83,-39.78 -6.83,-77.44 V 1340 h -89.19 v 337.06 h 82.84 v -49.51 c 29.41,38.09 66.44,57.13 111.09,57.13 19.68,0 37.65,-3.55 53.95,-10.64 16.29,-7.09 28.62,-16.13 36.98,-27.13 8.36,-11 14.18,-23.49 17.46,-37.46 3.27,-13.96 4.91,-33.95 4.91,-59.98 V 1340"
         style="fill:#2a3c93;fill-opacity:1;fill-rule:nonzero;stroke:none"
         transform="matrix(0.13333333,0,0,-0.13333333,0,293.90667)" />
      <path
         id="path22"
         d="m 5785.54,1340 v 69.51 l 126.32,145.04 c 20.73,23.69 36.07,40.52 46.01,50.47 -10.36,-0.64 -24.01,-1.06 -40.93,-1.27 l -119.03,-0.64 v 73.95 h 278.67 v -63.15 l -128.86,-148.54 -45.38,-49.2 c 24.75,1.48 40.09,2.23 46.02,2.23 h 138.06 V 1340 h -300.88"
         style="fill:#2a3c93;fill-opacity:1;fill-rule:nonzero;stroke:none"
         transform="matrix(0.13333333,0,0,-0.13333333,0,293.90667)" />
      <path
         id="path23"
         d="m 6146.41,1340 v 337.06 h 89.18 V 1340 Z m 0,382.77 v 82.52 h 89.18 v -82.52 h -89.18"
         style="fill:#2a3c93;fill-opacity:1;fill-rule:nonzero;stroke:none"
         transform="matrix(0.13333333,0,0,-0.13333333,0,293.90667)" />
      <path
         id="path24"
         d="m 6527.27,1537.41 c -0.64,25.81 -7.3,45.44 -19.99,58.88 -12.7,13.43 -28.15,20.16 -46.35,20.16 -19.46,0 -35.55,-7.1 -48.24,-21.27 -12.7,-14.18 -18.94,-33.44 -18.72,-57.77 z m -5.08,-90.13 88.87,-14.92 c -11.43,-32.58 -29.47,-57.4 -54.11,-74.43 -24.66,-17.03 -55.5,-25.55 -92.52,-25.55 -58.62,0 -102,19.16 -130.13,57.44 -22.22,30.69 -33.33,69.41 -33.33,116.18 0,55.86 14.61,99.6 43.81,131.23 29.2,31.63 66.11,47.45 110.76,47.45 50.15,0 89.71,-16.56 118.7,-49.67 28.98,-33.12 42.84,-83.85 41.57,-152.19 h -223.44 c 0.65,-26.45 7.84,-47.03 21.59,-61.73 13.76,-14.7 30.9,-22.05 51.42,-22.05 13.97,0 25.71,3.8 35.23,11.42 9.52,7.62 16.71,19.88 21.58,36.82"
         style="fill:#2a3c93;fill-opacity:1;fill-rule:nonzero;stroke:none"
         transform="matrix(0.13333333,0,0,-0.13333333,0,293.90667)" />
      <path
         id="path25"
         d="m 6773.87,1340 h -89.18 v 337.06 h 82.83 v -47.92 c 14.17,22.64 26.93,37.55 38.24,44.75 11.32,7.18 24.17,10.79 38.57,10.79 20.31,0 39.88,-5.61 58.72,-16.83 l -27.62,-77.75 c -15.03,9.72 -28.99,14.6 -41.89,14.6 -12.49,0 -23.07,-3.44 -31.74,-10.31 -8.68,-6.89 -15.5,-19.32 -20.47,-37.3 -4.98,-17.99 -7.46,-55.65 -7.46,-112.99 V 1340"
         style="fill:#2a3c93;fill-opacity:1;fill-rule:nonzero;stroke:none"
         transform="matrix(0.13333333,0,0,-0.13333333,0,293.90667)" />
      <path
         id="path26"
         d="m 7096.02,1677.06 v -71.09 h -60.94 v -135.84 c 0,-27.51 0.58,-43.54 1.75,-48.09 1.16,-4.55 3.81,-8.3 7.93,-11.26 4.13,-2.97 9.15,-4.45 15.08,-4.45 8.25,0 20.2,2.86 35.86,8.57 l 7.61,-69.19 c -20.73,-8.88 -44.22,-13.33 -70.45,-13.33 -16.08,0 -30.58,2.7 -43.48,8.1 -12.91,5.39 -22.38,12.37 -28.41,20.95 -6.03,8.56 -10.21,20.15 -12.54,34.74 -1.89,10.37 -2.85,31.32 -2.85,62.85 v 146.95 h -40.94 v 71.09 h 40.94 v 66.96 l 89.5,52.05 v -119.01 h 60.94"
         style="fill:#2a3c93;fill-opacity:1;fill-rule:nonzero;stroke:none"
         transform="matrix(0.13333333,0,0,-0.13333333,0,293.90667)" />
      <path
         id="path27"
         d="m 7431.17,1340 -135.84,337.06 h 93.63 l 63.47,-172.02 18.41,-57.44 c 4.86,14.59 7.93,24.22 9.2,28.88 2.97,9.52 6.14,19.04 9.53,28.56 l 64.1,172.02 h 91.73 L 7511.47,1340 h -80.3"
         style="fill:#2a3c93;fill-opacity:1;fill-rule:nonzero;stroke:none"
         transform="matrix(0.13333333,0,0,-0.13333333,0,293.90667)" />
      <path
         id="path28"
         d="m 7770.76,1508.54 c 0,-33.44 7.94,-59.05 23.8,-76.82 15.88,-17.77 35.44,-26.66 58.72,-26.66 23.27,0 42.8,8.89 58.56,26.66 15.76,17.77 23.64,43.59 23.64,77.44 0,33.01 -7.88,58.4 -23.64,76.17 -15.76,17.78 -35.29,26.66 -58.56,26.66 -23.28,0 -42.84,-8.88 -58.72,-26.66 -15.86,-17.77 -23.8,-43.37 -23.8,-76.79 z m -91.4,4.75 c 0,29.62 7.29,58.29 21.9,86.01 14.59,27.72 35.28,48.88 62.04,63.47 26.77,14.61 56.65,21.91 89.66,21.91 51,0 92.78,-16.56 125.37,-49.67 32.58,-33.12 48.88,-74.96 48.88,-125.53 0,-50.99 -16.46,-93.26 -49.36,-126.79 -32.9,-33.54 -74.31,-50.31 -124.24,-50.31 -30.9,0 -60.37,6.99 -88.4,20.95 -28.04,13.97 -49.36,34.44 -63.95,61.42 -14.61,26.97 -21.9,59.82 -21.9,98.54"
         style="fill:#2a3c93;fill-opacity:1;fill-rule:nonzero;stroke:none"
         transform="matrix(0.13333333,0,0,-0.13333333,0,293.90667)" />
      <path
         id="path29"
         d="m 8403.62,1340 h -89.17 v 172.02 c 0,36.39 -1.91,59.93 -5.72,70.62 -3.81,10.68 -10,18.99 -18.56,24.92 -8.58,5.92 -18.89,8.89 -30.95,8.89 -15.45,0 -29.31,-4.24 -41.57,-12.7 -12.28,-8.46 -20.7,-19.69 -25.24,-33.65 -4.55,-13.97 -6.82,-39.78 -6.82,-77.44 V 1340 h -89.19 v 337.06 h 82.84 v -49.51 c 29.4,38.09 66.44,57.13 111.08,57.13 19.68,0 37.66,-3.55 53.96,-10.64 16.29,-7.09 28.61,-16.13 36.97,-27.13 8.36,-11 14.18,-23.49 17.46,-37.46 3.27,-13.96 4.91,-33.95 4.91,-59.98 V 1340"
         style="fill:#2a3c93;fill-opacity:1;fill-rule:nonzero;stroke:none"
         transform="matrix(0.13333333,0,0,-0.13333333,0,293.90667)" />
      <path
         id="path30"
         d="m 8745.77,1515.83 c 0,-35.97 4.96,-62 14.92,-78.08 14.38,-23.28 34.48,-34.91 60.3,-34.91 20.52,0 37.98,8.73 52.36,26.18 14.4,17.46 21.58,43.54 21.58,78.25 0,38.71 -6.97,66.59 -20.93,83.62 -13.97,17.03 -31.86,25.56 -53.65,25.56 -21.16,0 -38.87,-8.42 -53.16,-25.24 -14.28,-16.82 -21.42,-41.95 -21.42,-75.38 z M 8983.8,1340 h -82.83 v 49.51 c -13.76,-19.26 -29.99,-33.59 -48.72,-43.01 -18.72,-9.41 -37.61,-14.12 -56.65,-14.12 -38.72,0 -71.89,15.61 -99.5,46.82 -27.61,31.2 -41.42,74.75 -41.42,130.6 0,57.13 13.44,100.55 40.31,130.29 26.87,29.73 60.82,44.59 101.88,44.59 37.65,0 70.24,-15.66 97.75,-46.97 v 167.58 h 89.18 V 1340"
         style="fill:#2a3c93;fill-opacity:1;fill-rule:nonzero;stroke:none"
         transform="matrix(0.13333333,0,0,-0.13333333,0,293.90667)" />
      <path
         id="path31"
         d="m 9271.99,1537.41 c -0.63,25.81 -7.29,45.44 -19.99,58.88 -12.69,13.43 -28.14,20.16 -46.34,20.16 -19.47,0 -35.55,-7.1 -48.25,-21.27 -12.69,-14.18 -18.93,-33.44 -18.72,-57.77 z m -5.07,-90.13 88.86,-14.92 c -11.42,-32.58 -29.46,-57.4 -54.11,-74.43 -24.66,-17.03 -55.5,-25.55 -92.52,-25.55 -58.61,0 -101.99,19.16 -130.12,57.44 -22.22,30.69 -33.33,69.41 -33.33,116.18 0,55.86 14.6,99.6 43.8,131.23 29.2,31.63 66.12,47.45 110.77,47.45 50.14,0 89.7,-16.56 118.7,-49.67 28.98,-33.12 42.84,-83.85 41.57,-152.19 H 9137.1 c 0.65,-26.45 7.83,-47.03 21.58,-61.73 13.76,-14.7 30.9,-22.05 51.43,-22.05 13.96,0 25.7,3.8 35.22,11.42 9.53,7.62 16.71,19.88 21.59,36.82"
         style="fill:#2a3c93;fill-opacity:1;fill-rule:nonzero;stroke:none"
         transform="matrix(0.13333333,0,0,-0.13333333,0,293.90667)" />
      <path
         id="path32"
         d="m 9518.6,1340 h -89.18 v 337.06 h 82.83 v -47.92 c 14.17,22.64 26.92,37.55 38.24,44.75 11.32,7.18 24.17,10.79 38.56,10.79 20.32,0 39.89,-5.61 58.73,-16.83 l -27.62,-77.75 c -15.03,9.72 -29,14.6 -41.9,14.6 -12.49,0 -23.06,-3.44 -31.73,-10.31 -8.69,-6.89 -15.5,-19.32 -20.47,-37.3 -4.98,-17.99 -7.46,-55.65 -7.46,-112.99 V 1340"
         style="fill:#2a3c93;fill-opacity:1;fill-rule:nonzero;stroke:none"
         transform="matrix(0.13333333,0,0,-0.13333333,0,293.90667)" />
      <path
         id="path33"
         d="m 3402.94,560.012 v 465.278 h 345 v -78.708 h -251.05 v -103.16 h 233.59 V 765.039 H 3496.89 V 638.398 h 259.94 v -78.386 h -353.89"
         style="fill:#2a3c93;fill-opacity:1;fill-rule:nonzero;stroke:none"
         transform="matrix(0.13333333,0,0,-0.13333333,0,293.90667)" />
      <path
         id="path34"
         d="m 4057.71,560.012 v 50.457 c -12.28,-17.981 -28.41,-32.16 -48.4,-42.528 -20,-10.371 -41.1,-15.55 -63.32,-15.55 -22.65,0 -42.96,4.968 -60.94,14.918 -17.99,9.941 -30.99,23.91 -39.03,41.902 -8.05,17.969 -12.07,42.84 -12.07,74.578 V 897.07 h 89.19 V 742.18 c 0,-47.399 1.64,-76.43 4.92,-87.121 3.27,-10.688 9.25,-19.149 17.93,-25.387 8.67,-6.25 19.68,-9.363 33.01,-9.363 15.23,0 28.87,4.179 40.94,12.543 12.05,8.347 20.32,18.718 24.75,31.097 4.45,12.371 6.67,42.692 6.67,90.93 V 897.07 h 89.19 V 560.012 h -82.84"
         style="fill:#2a3c93;fill-opacity:1;fill-rule:nonzero;stroke:none"
         transform="matrix(0.13333333,0,0,-0.13333333,0,293.90667)" />
      <path
         id="path35"
         d="m 4318.27,560.012 h -89.18 V 897.07 h 82.84 v -47.922 c 14.17,22.633 26.92,37.551 38.24,44.743 11.32,7.191 24.17,10.789 38.56,10.789 20.32,0 39.89,-5.598 58.72,-16.821 l -27.61,-77.757 c -15.03,9.73 -29,14.597 -41.9,14.597 -12.49,0 -23.06,-3.429 -31.74,-10.308 -8.68,-6.879 -15.49,-19.321 -20.47,-37.289 -4.98,-17.993 -7.46,-55.661 -7.46,-112.993 V 560.012"
         style="fill:#2a3c93;fill-opacity:1;fill-rule:nonzero;stroke:none"
         transform="matrix(0.13333333,0,0,-0.13333333,0,293.90667)" />
      <path
         id="path36"
         d="m 4556.63,728.539 c 0,-33.437 7.94,-59.039 23.8,-76.82 15.88,-17.77 35.44,-26.66 58.72,-26.66 23.27,0 42.8,8.89 58.56,26.66 15.76,17.781 23.64,43.601 23.64,77.453 0,33 -7.88,58.387 -23.64,76.168 -15.76,17.769 -35.29,26.66 -58.56,26.66 -23.28,0 -42.84,-8.891 -58.72,-26.66 -15.86,-17.781 -23.8,-43.371 -23.8,-76.801 z m -91.4,4.762 c 0,29.621 7.29,58.289 21.9,86 14.59,27.73 35.27,48.89 62.04,63.48 26.77,14.61 56.65,21.899 89.66,21.899 51,0 92.78,-16.559 125.37,-49.66 32.58,-33.122 48.88,-74.969 48.88,-125.532 0,-51 -16.46,-93.258 -49.36,-126.797 -32.9,-33.531 -74.31,-50.3 -124.24,-50.3 -30.9,0 -60.37,6.98 -88.4,20.949 -28.04,13.961 -49.36,34.43 -63.95,61.41 -14.61,26.969 -21.9,59.832 -21.9,98.551"
         style="fill:#2a3c93;fill-opacity:1;fill-rule:nonzero;stroke:none"
         transform="matrix(0.13333333,0,0,-0.13333333,0,293.90667)" />
      <path
         id="path37"
         d="m 4968.59,734.238 c 0,-37.867 7.51,-65.847 22.54,-83.937 15.02,-18.09 33.32,-27.129 54.9,-27.129 20.74,0 37.98,8.297 51.74,24.91 13.75,16.598 20.62,43.848 20.62,81.727 0,35.332 -7.09,61.562 -21.26,78.711 -14.18,17.128 -31.74,25.699 -52.68,25.699 -21.8,0 -39.89,-8.399 -54.28,-25.231 -14.39,-16.816 -21.58,-41.738 -21.58,-74.75 z m -88.23,162.832 h 83.15 v -49.519 c 10.8,16.929 25.39,30.679 43.81,41.258 18.4,10.582 38.82,15.871 61.25,15.871 39.14,0 72.36,-15.34 99.66,-46.02 27.29,-30.68 40.94,-73.422 40.94,-128.219 0,-56.281 -13.76,-100.031 -41.27,-131.23 -27.5,-31.223 -60.83,-46.82 -99.97,-46.82 -18.62,0 -35.5,3.699 -50.62,11.109 -15.13,7.398 -31.06,20.102 -47.77,38.09 V 431.781 h -89.18 V 897.07"
         style="fill:#2a3c93;fill-opacity:1;fill-rule:nonzero;stroke:none"
         transform="matrix(0.13333333,0,0,-0.13333333,0,293.90667)" />
      <path
         id="path38"
         d="m 5444.67,956.73 v 76.5 h 76.81 v -76.5 z m 21.26,-234.859 c -11.43,-3.812 -29.51,-8.359 -54.27,-13.641 -24.75,-5.289 -40.95,-10.48 -48.56,-15.558 -11.63,-8.25 -17.45,-18.723 -17.45,-31.41 0,-12.492 4.64,-23.293 13.96,-32.391 9.31,-9.09 21.15,-13.641 35.55,-13.641 16.07,0 31.41,5.282 46.02,15.872 10.78,8.039 17.87,17.878 21.26,29.507 2.33,7.621 3.49,22.11 3.49,43.493 z M 5308.2,956.73 v 76.5 h 76.48 v -76.5 z m 38.39,-162.5 -80.92,14.602 c 9.09,32.578 24.75,56.699 46.97,72.367 22.22,15.653 55.22,23.481 99.02,23.481 39.78,0 69.4,-4.7 88.87,-14.121 19.46,-9.418 33.16,-21.368 41.1,-35.868 7.93,-14.492 11.9,-41.089 11.9,-79.82 l -0.95,-104.101 c 0,-29.622 1.43,-51.469 4.29,-65.54 2.85,-14.07 8.19,-29.148 16.02,-45.218 h -88.23 c -2.33,5.91 -5.19,14.699 -8.57,26.34 -1.48,5.289 -2.54,8.769 -3.17,10.468 -15.23,-14.808 -31.53,-25.922 -48.88,-33.32 -17.35,-7.41 -35.86,-11.109 -55.54,-11.109 -34.71,0 -62.05,9.41 -82.04,28.238 -20,18.84 -30,42.641 -30,71.422 0,19.039 4.55,36.019 13.65,50.929 9.09,14.93 21.84,26.352 38.24,34.282 16.4,7.937 40.04,14.867 70.94,20.789 41.68,7.828 70.57,15.129 86.64,21.898 v 8.883 c 0,17.148 -4.23,29.367 -12.7,36.656 -8.45,7.313 -24.43,10.961 -47.92,10.961 -15.86,0 -28.25,-3.117 -37.13,-9.359 -8.89,-6.25 -16.08,-17.199 -21.59,-32.86"
         style="fill:#2a3c93;fill-opacity:1;fill-rule:nonzero;stroke:none"
         transform="matrix(0.13333333,0,0,-0.13333333,0,293.90667)" />
      <path
         id="path39"
         d="M 5641.46,560.012 V 897.07 h 89.18 V 560.012 Z m 0,382.758 v 82.52 h 89.18 v -82.52 h -89.18"
         style="fill:#2a3c93;fill-opacity:1;fill-rule:nonzero;stroke:none"
         transform="matrix(0.13333333,0,0,-0.13333333,0,293.90667)" />
      <path
         id="path40"
         d="m 5790.62,656.18 89.5,13.64 c 3.81,-17.351 11.53,-30.531 23.17,-39.511 11.63,-9 27.93,-13.489 48.87,-13.489 23.07,0 40.42,4.231 52.05,12.7 7.83,5.921 11.75,13.851 11.75,23.8 0,6.762 -2.12,12.371 -6.35,16.821 -4.44,4.23 -14.39,8.14 -29.83,11.738 -71.95,15.871 -117.54,30.359 -136.8,43.48 -26.66,18.2 -39.98,43.481 -39.98,75.86 0,29.203 11.52,53.742 34.59,73.633 23.06,19.878 58.82,29.828 107.28,29.828 46.12,0 80.4,-7.508 102.83,-22.532 22.42,-15.019 37.87,-37.238 46.34,-66.66 l -84.11,-15.539 c -3.6,13.11 -10.43,23.16 -20.48,30.153 -10.04,6.98 -24.38,10.468 -42.99,10.468 -23.5,0 -40.32,-3.281 -50.47,-9.84 -6.78,-4.648 -10.16,-10.691 -10.16,-18.089 0,-6.352 2.96,-11.743 8.89,-16.192 8.04,-5.918 35.81,-14.277 83.31,-25.07 47.5,-10.789 80.66,-24.008 99.5,-39.668 18.61,-15.859 27.93,-37.981 27.93,-66.332 0,-30.899 -12.91,-57.438 -38.72,-79.668 -25.82,-22.211 -64,-33.32 -114.58,-33.32 -45.91,0 -82.26,9.308 -109.01,27.929 -26.77,18.61 -44.28,43.899 -52.53,75.86"
         style="fill:#2a3c93;fill-opacity:1;fill-rule:nonzero;stroke:none"
         transform="matrix(0.13333333,0,0,-0.13333333,0,293.90667)" />
      <path
         id="path41"
         d="m 6477.43,797.41 -87.91,-15.871 c -2.97,17.563 -9.67,30.793 -20.15,39.68 -10.47,8.883 -24.08,13.32 -40.78,13.32 -22.22,0 -39.95,-7.668 -53.17,-23.008 -13.22,-15.34 -19.83,-41 -19.83,-76.961 0,-39.988 6.72,-68.238 20.15,-84.738 13.43,-16.5 31.47,-24.773 54.12,-24.773 16.92,0 30.78,4.82 41.58,14.453 10.78,9.629 18.4,26.179 22.85,49.679 l 87.6,-14.929 c -9.1,-40.203 -26.57,-70.563 -52.38,-91.09 -25.82,-20.524 -60.41,-30.781 -103.78,-30.781 -49.3,0 -88.61,15.55 -117.91,46.66 -29.3,31.09 -43.96,74.148 -43.96,129.168 0,55.64 14.71,98.961 44.12,129.972 29.4,31 69.19,46.489 119.34,46.489 41.04,0 73.68,-8.828 97.91,-26.5 24.22,-17.668 41.63,-44.59 52.2,-80.77"
         style="fill:#2a3c93;fill-opacity:1;fill-rule:nonzero;stroke:none"
         transform="matrix(0.13333333,0,0,-0.13333333,0,293.90667)" />
      <path
         id="path42"
         d="M 6633.91,1025.29 V 854.219 c 28.77,33.64 63.15,50.461 103.14,50.461 20.52,0 39.05,-3.801 55.55,-11.418 16.5,-7.621 28.93,-17.364 37.28,-29.203 8.36,-11.86 14.08,-24.969 17.14,-39.36 3.07,-14.39 4.6,-36.711 4.6,-66.961 V 560.012 h -89.18 v 178.039 c 0,35.34 -1.7,57.781 -5.07,67.289 -3.39,9.531 -9.37,17.09 -17.93,22.691 -8.58,5.61 -19.32,8.418 -32.22,8.418 -14.82,0 -28.04,-3.597 -39.68,-10.801 -11.63,-7.187 -20.15,-18.039 -25.55,-32.527 -5.39,-14.492 -8.08,-35.922 -8.08,-64.269 v -168.84 h -89.19 v 465.278 h 89.19"
         style="fill:#2a3c93;fill-opacity:1;fill-rule:nonzero;stroke:none"
         transform="matrix(0.13333333,0,0,-0.13333333,0,293.90667)" />
      <path
         id="path43"
         d="m 7142.35,757.422 c -0.64,25.808 -7.3,45.437 -19.99,58.867 -12.7,13.43 -28.15,20.16 -46.35,20.16 -19.47,0 -35.55,-7.097 -48.24,-21.269 -12.7,-14.18 -18.94,-33.442 -18.73,-57.758 z m -5.08,-90.141 88.86,-14.91 c -11.42,-32.59 -29.46,-57.402 -54.11,-74.43 -24.65,-17.043 -55.49,-25.55 -92.52,-25.55 -58.61,0 -101.99,19.148 -130.12,57.441 -22.22,30.68 -33.33,69.398 -33.33,116.168 0,55.859 14.61,99.602 43.81,131.23 29.19,31.629 66.11,47.45 110.76,47.45 50.14,0 89.7,-16.559 118.7,-49.66 28.98,-33.122 42.84,-83.848 41.57,-152.188 h -223.44 c 0.65,-26.461 7.84,-47.031 21.59,-61.73 13.75,-14.711 30.89,-22.063 51.42,-22.063 13.97,0 25.7,3.813 35.23,11.422 9.52,7.621 16.7,19.891 21.58,36.82"
         style="fill:#2a3c93;fill-opacity:1;fill-rule:nonzero;stroke:none"
         transform="matrix(0.13333333,0,0,-0.13333333,0,293.90667)" />
      <path
         id="path44"
         d="m 7610.17,560.012 h -89.18 v 172.019 c 0,36.379 -1.91,59.93 -5.71,70.61 -3.81,10.691 -10,19 -18.57,24.918 -8.57,5.921 -18.89,8.89 -30.95,8.89 -15.45,0 -29.3,-4.238 -41.57,-12.687 -12.27,-8.473 -20.69,-19.692 -25.23,-33.66 -4.55,-13.961 -6.83,-39.77 -6.83,-77.442 V 560.012 h -89.19 V 897.07 h 82.84 v -49.519 c 29.41,38.09 66.44,57.129 111.09,57.129 19.67,0 37.65,-3.539 53.95,-10.629 16.29,-7.09 28.62,-16.129 36.97,-27.129 8.36,-11.012 14.18,-23.5 17.47,-37.461 3.27,-13.973 4.91,-33.961 4.91,-59.981 V 560.012"
         style="fill:#2a3c93;fill-opacity:1;fill-rule:nonzero;stroke:none"
         transform="matrix(0.13333333,0,0,-0.13333333,0,293.90667)" />
      <path
         id="path45"
         d="m 7881.22,1025.29 h 93.95 V 773.289 c 0,-39.988 1.15,-65.91 3.48,-77.758 4.02,-19.043 13.6,-34.332 28.72,-45.871 15.13,-11.531 35.82,-17.289 62.06,-17.289 26.66,0 46.75,5.449 60.3,16.348 13.53,10.89 21.69,24.269 24.44,40.14 2.75,15.871 4.12,42.223 4.12,79.039 v 257.392 h 93.95 V 780.898 c 0,-55.859 -2.54,-95.316 -7.62,-118.367 -5.08,-23.07 -14.44,-42.543 -28.08,-58.402 -13.66,-15.879 -31.9,-28.52 -54.75,-37.93 -22.85,-9.418 -52.7,-14.117 -89.51,-14.117 -44.44,0 -78.13,5.117 -101.09,15.387 -22.96,10.25 -41.1,23.582 -54.42,39.992 -13.34,16.391 -22.12,33.578 -26.35,51.57 -6.14,26.66 -9.2,66.008 -9.2,118.071 v 248.188"
         style="fill:#2a3c93;fill-opacity:1;fill-rule:nonzero;stroke:none"
         transform="matrix(0.13333333,0,0,-0.13333333,0,293.90667)" />
      <path
         id="path46"
         d="m 8657.22,560.012 h -89.18 v 172.019 c 0,36.379 -1.91,59.93 -5.71,70.61 -3.81,10.691 -10,19 -18.57,24.918 -8.57,5.921 -18.89,8.89 -30.95,8.89 -15.44,0 -29.3,-4.238 -41.57,-12.687 -12.27,-8.473 -20.69,-19.692 -25.23,-33.66 -4.55,-13.961 -6.83,-39.77 -6.83,-77.442 V 560.012 h -89.19 V 897.07 h 82.84 v -49.519 c 29.41,38.09 66.44,57.129 111.09,57.129 19.68,0 37.65,-3.539 53.95,-10.629 16.29,-7.09 28.62,-16.129 36.98,-27.129 8.35,-11.012 14.18,-23.5 17.46,-37.461 3.27,-13.973 4.91,-33.961 4.91,-59.981 V 560.012"
         style="fill:#2a3c93;fill-opacity:1;fill-rule:nonzero;stroke:none"
         transform="matrix(0.13333333,0,0,-0.13333333,0,293.90667)" />
      <path
         id="path47"
         d="M 8747.68,560.012 V 897.07 h 89.18 V 560.012 Z m 0,382.758 v 82.52 h 89.18 v -82.52 h -89.18"
         style="fill:#2a3c93;fill-opacity:1;fill-rule:nonzero;stroke:none"
         transform="matrix(0.13333333,0,0,-0.13333333,0,293.90667)" />
      <path
         id="path48"
         d="m 8999.04,728.539 c 0,-33.437 7.94,-59.039 23.8,-76.82 15.88,-17.77 35.44,-26.66 58.72,-26.66 23.28,0 42.8,8.89 58.56,26.66 15.76,17.781 23.64,43.601 23.64,77.453 0,33 -7.88,58.387 -23.64,76.168 -15.76,17.769 -35.28,26.66 -58.56,26.66 -23.28,0 -42.84,-8.891 -58.72,-26.66 -15.86,-17.781 -23.8,-43.371 -23.8,-76.801 z m -91.4,4.762 c 0,29.621 7.29,58.289 21.9,86 14.59,27.73 35.28,48.89 62.04,63.48 26.77,14.61 56.65,21.899 89.66,21.899 51,0 92.79,-16.559 125.37,-49.66 32.58,-33.122 48.88,-74.969 48.88,-125.532 0,-51 -16.45,-93.258 -49.36,-126.797 -32.9,-33.531 -74.31,-50.3 -124.24,-50.3 -30.9,0 -60.36,6.98 -88.4,20.949 -28.04,13.961 -49.36,34.43 -63.95,61.41 -14.61,26.969 -21.9,59.832 -21.9,98.551"
         style="fill:#2a3c93;fill-opacity:1;fill-rule:nonzero;stroke:none"
         transform="matrix(0.13333333,0,0,-0.13333333,0,293.90667)" />
      <path
         id="path49"
         d="m 9631.9,560.012 h -89.18 v 172.019 c 0,36.379 -1.91,59.93 -5.72,70.61 -3.8,10.691 -10,19 -18.56,24.918 -8.57,5.921 -18.89,8.89 -30.95,8.89 -15.45,0 -29.3,-4.238 -41.57,-12.687 -12.28,-8.473 -20.69,-19.692 -25.23,-33.66 -4.56,-13.961 -6.83,-39.77 -6.83,-77.442 V 560.012 h -89.19 V 897.07 h 82.84 v -49.519 c 29.41,38.09 66.44,57.129 111.09,57.129 19.67,0 37.65,-3.539 53.95,-10.629 16.29,-7.09 28.61,-16.129 36.97,-27.129 8.36,-11.012 14.18,-23.5 17.46,-37.461 3.28,-13.973 4.92,-33.961 4.92,-59.981 V 560.012"
         style="fill:#2a3c93;fill-opacity:1;fill-rule:nonzero;stroke:none"
         transform="matrix(0.13333333,0,0,-0.13333333,0,293.90667)" />
    </g>
  </g>
</svg>
