<?xml version="1.0" encoding="UTF-8"?>
<!DOCTYPE svg PUBLIC "-//W3C//DTD SVG 1.1//EN" "http://www.w3.org/Graphics/SVG/1.1/DTD/svg11.dtd">
<svg xmlns="http://www.w3.org/2000/svg" version="1.1" width="1426px" height="167px" style="shape-rendering:geometricPrecision; text-rendering:geometricPrecision; image-rendering:optimizeQuality; fill-rule:evenodd; clip-rule:evenodd" xmlns:xlink="http://www.w3.org/1999/xlink">
<g><path style="opacity:0.939" fill="#000000" d="M 767.5,-0.5 C 775.167,-0.5 782.833,-0.5 790.5,-0.5C 815.54,6.56345 828.207,23.2301 828.5,49.5C 821.167,49.5 813.833,49.5 806.5,49.5C 806.678,27.1767 795.678,16.6767 773.5,18C 762.333,19.8333 755.833,26.3333 754,37.5C 752.337,50.3407 757.17,59.8407 768.5,66C 777.339,70.0577 786.339,73.7243 795.5,77C 820.006,86.5088 830.839,104.342 828,130.5C 823.99,150.342 812.157,162.342 792.5,166.5C 784.5,166.5 776.5,166.5 768.5,166.5C 742.436,160.095 728.77,143.428 727.5,116.5C 734.833,116.5 742.167,116.5 749.5,116.5C 750.556,140.047 762.89,150.547 786.5,148C 796.78,146.387 803.28,140.553 806,130.5C 808.815,118.269 805.315,108.436 795.5,101C 783.997,95.6105 772.331,90.6105 760.5,86C 733.281,71.6841 725.448,50.1841 737,21.5C 744.142,9.85676 754.309,2.52342 767.5,-0.5 Z"/></g>
<g><path style="opacity:0.942" fill="#000000" d="M 1238.5,-0.5 C 1246.5,-0.5 1254.5,-0.5 1262.5,-0.5C 1280.61,4.11008 1292.45,15.4434 1298,33.5C 1299.71,40.4202 1300.88,47.4202 1301.5,54.5C 1294.17,54.5 1286.83,54.5 1279.5,54.5C 1279.49,42.6379 1275.82,32.1379 1268.5,23C 1253.57,14.5631 1239.74,16.0631 1227,27.5C 1221.32,35.2152 1217.98,43.8819 1217,53.5C 1216.33,73.1667 1216.33,92.8333 1217,112.5C 1221.32,144.733 1238.48,154.9 1268.5,143C 1275.62,134.158 1279.28,123.991 1279.5,112.5C 1286.86,112.169 1294.2,112.503 1301.5,113.5C 1300.82,130.016 1294.82,144.183 1283.5,156C 1276.49,161.173 1268.83,164.673 1260.5,166.5C 1252.83,166.5 1245.17,166.5 1237.5,166.5C 1222.81,162.986 1211.64,154.653 1204,141.5C 1195.63,122.902 1192.46,103.402 1194.5,83C 1192.59,63.4015 1195.42,44.5682 1203,26.5C 1210.83,12.0253 1222.66,3.02534 1238.5,-0.5 Z"/></g>
<g><path style="opacity:0.946" fill="#000000" d="M 514.5,1.5 C 535.545,1.0581 556.545,1.5581 577.5,3C 596.213,8.0483 606.713,20.215 609,39.5C 611.774,55.6404 608.441,70.307 599,83.5C 594.592,87.7425 589.759,91.4092 584.5,94.5C 595.623,117.555 605.956,140.888 615.5,164.5C 607.58,164.815 599.747,164.482 592,163.5C 582.69,141.9 573.19,120.4 563.5,99C 554.506,98.5002 545.506,98.3336 536.5,98.5C 536.5,120.5 536.5,142.5 536.5,164.5C 529.167,164.5 521.833,164.5 514.5,164.5C 514.5,110.167 514.5,55.8333 514.5,1.5 Z M 536.5,19.5 C 545.839,19.3335 555.173,19.5002 564.5,20C 573.772,20.8808 580.606,25.3808 585,33.5C 590,45.8282 589.333,57.8282 583,69.5C 578.873,75.1475 573.373,78.6475 566.5,80C 556.506,80.4998 546.506,80.6665 536.5,80.5C 536.5,60.1667 536.5,39.8333 536.5,19.5 Z"/></g>
<g><path style="opacity:0.973" fill="#000000" d="M 630.5,1.5 C 659.5,1.5 688.5,1.5 717.5,1.5C 717.5,7.5 717.5,13.5 717.5,19.5C 695.5,19.5 673.5,19.5 651.5,19.5C 651.5,36.8333 651.5,54.1667 651.5,71.5C 670.833,71.5 690.167,71.5 709.5,71.5C 709.5,77.5 709.5,83.5 709.5,89.5C 690.167,89.5 670.833,89.5 651.5,89.5C 651.5,108.5 651.5,127.5 651.5,146.5C 673.833,146.5 696.167,146.5 718.5,146.5C 718.5,152.5 718.5,158.5 718.5,164.5C 689.167,164.5 659.833,164.5 630.5,164.5C 630.5,110.167 630.5,55.8333 630.5,1.5 Z"/></g>
<g><path style="opacity:0.973" fill="#000000" d="M 846.5,1.5 C 875.5,1.5 904.5,1.5 933.5,1.5C 933.5,7.5 933.5,13.5 933.5,19.5C 911.5,19.5 889.5,19.5 867.5,19.5C 867.5,36.8333 867.5,54.1667 867.5,71.5C 886.833,71.5 906.167,71.5 925.5,71.5C 925.5,77.5 925.5,83.5 925.5,89.5C 906.167,89.5 886.833,89.5 867.5,89.5C 867.5,108.5 867.5,127.5 867.5,146.5C 889.833,146.5 912.167,146.5 934.5,146.5C 934.5,152.5 934.5,158.5 934.5,164.5C 905.167,164.5 875.833,164.5 846.5,164.5C 846.5,110.167 846.5,55.8333 846.5,1.5 Z"/></g>
<g><path style="opacity:0.941" fill="#000000" d="M 997.5,1.5 C 1004.09,1.189 1010.59,1.52234 1017,2.5C 1034.12,56.4811 1051.62,110.314 1069.5,164C 1061.84,164.5 1054.17,164.666 1046.5,164.5C 1042.91,150.728 1038.91,137.061 1034.5,123.5C 1016.18,122.5 997.845,122.167 979.5,122.5C 976.139,136.275 972.306,149.941 968,163.5C 960.558,164.813 953.058,164.813 945.5,163.5C 963.145,109.581 980.479,55.581 997.5,1.5 Z M 1006.5,33.5 C 1007.12,33.6107 1007.62,33.944 1008,34.5C 1014.53,57.262 1021.37,79.9287 1028.5,102.5C 1014.52,103.499 1000.52,103.833 986.5,103.5C 992.962,80.1143 999.628,56.781 1006.5,33.5 Z"/></g>
<g><path style="opacity:0.946" fill="#000000" d="M 1083.5,1.5 C 1102.84,1.33338 1122.17,1.50005 1141.5,2C 1159.81,4.64044 1171.64,14.8071 1177,32.5C 1181.61,50.4099 1178.94,67.0765 1169,82.5C 1164.6,87.266 1159.77,91.4327 1154.5,95C 1164.7,117.893 1175.03,140.726 1185.5,163.5C 1177.5,164.833 1169.5,164.833 1161.5,163.5C 1152.17,142.167 1142.83,120.833 1133.5,99.5C 1124.19,98.5017 1114.86,98.1684 1105.5,98.5C 1105.5,120.5 1105.5,142.5 1105.5,164.5C 1098.17,164.5 1090.83,164.5 1083.5,164.5C 1083.5,110.167 1083.5,55.8333 1083.5,1.5 Z M 1105.5,19.5 C 1114.84,19.3335 1124.17,19.5002 1133.5,20C 1150.26,22.806 1158.26,32.806 1157.5,50C 1157.75,65.7245 1150.42,75.7245 1135.5,80C 1125.51,80.4998 1115.51,80.6665 1105.5,80.5C 1105.5,60.1667 1105.5,39.8333 1105.5,19.5 Z"/></g>
<g><path style="opacity:0.976" fill="#000000" d="M 1425.5,1.5 C 1425.5,55.8333 1425.5,110.167 1425.5,164.5C 1418.5,164.5 1411.5,164.5 1404.5,164.5C 1404.5,139.5 1404.5,114.5 1404.5,89.5C 1382.83,89.5 1361.17,89.5 1339.5,89.5C 1339.5,114.5 1339.5,139.5 1339.5,164.5C 1332.5,164.5 1325.5,164.5 1318.5,164.5C 1318.5,110.167 1318.5,55.8333 1318.5,1.5C 1325.5,1.5 1332.5,1.5 1339.5,1.5C 1339.5,24.8333 1339.5,48.1667 1339.5,71.5C 1361.17,71.5 1382.83,71.5 1404.5,71.5C 1404.5,48.1667 1404.5,24.8333 1404.5,1.5C 1411.5,1.5 1418.5,1.5 1425.5,1.5 Z"/></g>
<g><path style="opacity:0.903" fill="#000000" d="M 166.5,5.5 C 183.5,5.5 200.5,5.5 217.5,5.5C 217.5,9.83333 217.5,14.1667 217.5,18.5C 206.167,18.5 194.833,18.5 183.5,18.5C 183.5,24.1667 183.5,29.8333 183.5,35.5C 193.167,35.5 202.833,35.5 212.5,35.5C 212.5,39.8333 212.5,44.1667 212.5,48.5C 202.833,48.5 193.167,48.5 183.5,48.5C 183.5,54.5 183.5,60.5 183.5,66.5C 194.833,66.5 206.167,66.5 217.5,66.5C 217.5,71.1667 217.5,75.8333 217.5,80.5C 200.5,80.5 183.5,80.5 166.5,80.5C 166.5,55.5 166.5,30.5 166.5,5.5 Z"/></g>
<g><path style="opacity:0.922" fill="#000000" d="M 249.5,5.5 C 254.762,5.19532 259.928,5.52865 265,6.5C 273.872,30.9498 283.039,55.2832 292.5,79.5C 286.537,80.4959 280.537,80.8293 274.5,80.5C 273.334,75.1698 271.668,70.0032 269.5,65C 261.167,64.3333 252.833,64.3333 244.5,65C 242.332,70.0032 240.666,75.1698 239.5,80.5C 233.463,80.8293 227.463,80.4959 221.5,79.5C 230.849,54.8078 240.183,30.1412 249.5,5.5 Z M 256.5,26.5 C 259.574,34.5464 262.574,42.7131 265.5,51C 259.833,51.6667 254.167,51.6667 248.5,51C 251.667,42.9977 254.334,34.8311 256.5,26.5 Z"/></g>
<g><path style="opacity:0.928" fill="#000000" d="M 298.5,5.5 C 310.838,5.33346 323.171,5.50012 335.5,6C 351.247,10.314 357.08,20.4807 353,36.5C 350.78,42.2227 346.946,46.556 341.5,49.5C 347.342,59.5158 352.342,69.8491 356.5,80.5C 350.794,80.8288 345.128,80.4954 339.5,79.5C 334.912,71.3239 330.578,62.9906 326.5,54.5C 322.555,53.5091 318.555,53.1758 314.5,53.5C 314.5,62.5 314.5,71.5 314.5,80.5C 309.167,80.5 303.833,80.5 298.5,80.5C 298.5,55.5 298.5,30.5 298.5,5.5 Z M 314.5,18.5 C 319.844,18.334 325.177,18.5006 330.5,19C 335.55,20.4338 337.883,23.7671 337.5,29C 337.802,33.7316 335.802,37.0649 331.5,39C 325.843,39.4994 320.176,39.6661 314.5,39.5C 314.5,32.5 314.5,25.5 314.5,18.5 Z"/></g>
<g><path style="opacity:0.943" fill="#000000" d="M 359.5,5.5 C 379.833,5.5 400.167,5.5 420.5,5.5C 420.5,9.83333 420.5,14.1667 420.5,18.5C 413.167,18.5 405.833,18.5 398.5,18.5C 398.5,39.1667 398.5,59.8333 398.5,80.5C 393.167,80.5 387.833,80.5 382.5,80.5C 382.5,59.8333 382.5,39.1667 382.5,18.5C 374.833,18.5 367.167,18.5 359.5,18.5C 359.5,14.1667 359.5,9.83333 359.5,5.5 Z"/></g>
<g><path style="opacity:0.899" fill="#000000" d="M 427.5,5.5 C 433.167,5.5 438.833,5.5 444.5,5.5C 444.5,15.5 444.5,25.5 444.5,35.5C 453.833,35.5 463.167,35.5 472.5,35.5C 472.5,25.5 472.5,15.5 472.5,5.5C 478.167,5.5 483.833,5.5 489.5,5.5C 489.5,30.5 489.5,55.5 489.5,80.5C 483.833,80.5 478.167,80.5 472.5,80.5C 472.5,69.8333 472.5,59.1667 472.5,48.5C 463.167,48.5 453.833,48.5 444.5,48.5C 444.5,59.1667 444.5,69.8333 444.5,80.5C 438.833,80.5 433.167,80.5 427.5,80.5C 427.5,55.5 427.5,30.5 427.5,5.5 Z"/></g>
<g><path style="opacity:0.913" fill="#000000" d="M -0.5,143.5 C -0.5,136.833 -0.5,130.167 -0.5,123.5C 6.94626,106.124 19.2796,101.624 36.5,110C 43.5313,116.257 46.5313,124.09 45.5,133.5C 45.6594,153.841 35.6594,162.674 15.5,160C 7.24681,157.248 1.91348,151.748 -0.5,143.5 Z M 20.5,116.5 C 24.5849,116.459 27.7515,118.125 30,121.5C 33.5239,130.009 33.1905,138.342 29,146.5C 24.6667,150.5 20.3333,150.5 16,146.5C 11.3333,137.5 11.3333,128.5 16,119.5C 17.6516,118.601 19.1516,117.601 20.5,116.5 Z"/></g>
<g><path style="opacity:0.898" fill="#000000" d="M 117.5,105.5 C 125.044,105.056 131.544,107.389 137,112.5C 138.728,115.639 139.894,118.972 140.5,122.5C 135.88,123.493 131.214,123.827 126.5,123.5C 125.736,117.608 122.402,115.441 116.5,117C 111.893,119.235 111.559,121.902 115.5,125C 121.281,127.057 126.947,129.39 132.5,132C 141.729,139.764 142.395,148.097 134.5,157C 126.447,160.804 118.114,161.471 109.5,159C 101.721,156.283 97.7206,150.783 97.5,142.5C 102.167,142.5 106.833,142.5 111.5,142.5C 111.834,147.664 114.667,150.331 120,150.5C 127.983,148.068 128.483,144.568 121.5,140C 113.387,138.362 106.554,134.529 101,128.5C 97.3474,114.314 102.847,106.647 117.5,105.5 Z"/></g>
<g><path style="opacity:0.908" fill="#000000" d="M 412.5,105.5 C 426.588,105.757 435.088,112.757 438,126.5C 440.218,138.46 437.052,148.626 428.5,157C 416.232,163.114 405.399,161.281 396,151.5C 390.387,140.013 390.054,128.346 395,116.5C 399.216,110.148 405.05,106.481 412.5,105.5 Z M 413.5,116.5 C 416.939,116.589 419.772,117.922 422,120.5C 425.333,128.833 425.333,137.167 422,145.5C 417.7,150.446 413.033,150.779 408,146.5C 405.092,138.631 404.759,130.631 407,122.5C 408.436,119.558 410.603,117.558 413.5,116.5 Z"/></g>
<g><path style="opacity:0.9" fill="#000000" d="M 51.5,106.5 C 60.1731,106.334 68.8397,106.5 77.5,107C 90.1698,109.008 94.6698,116.174 91,128.5C 86.5086,131.066 86.5086,133.399 91,135.5C 96.6413,151.034 91.1413,159.201 74.5,160C 66.8406,160.5 59.1739,160.666 51.5,160.5C 51.5,142.5 51.5,124.5 51.5,106.5 Z M 65.5,117.5 C 69.9113,117.021 74.078,117.688 78,119.5C 79.1201,122.999 78.2868,125.833 75.5,128C 72.1832,128.498 68.8499,128.665 65.5,128.5C 65.5,124.833 65.5,121.167 65.5,117.5 Z M 65.5,137.5 C 68.8499,137.335 72.1832,137.502 75.5,138C 79.2127,139.691 80.3794,142.525 79,146.5C 78.0975,147.701 76.9308,148.535 75.5,149C 72.1832,149.498 68.8499,149.665 65.5,149.5C 65.5,145.5 65.5,141.5 65.5,137.5 Z"/></g>
<g><path style="opacity:0.917" fill="#000000" d="M 146.5,106.5 C 158.833,106.5 171.167,106.5 183.5,106.5C 183.5,110.167 183.5,113.833 183.5,117.5C 175.5,117.5 167.5,117.5 159.5,117.5C 159.5,120.833 159.5,124.167 159.5,127.5C 166.167,127.5 172.833,127.5 179.5,127.5C 179.5,130.833 179.5,134.167 179.5,137.5C 172.833,137.5 166.167,137.5 159.5,137.5C 159.5,141.5 159.5,145.5 159.5,149.5C 167.5,149.5 175.5,149.5 183.5,149.5C 183.5,153.167 183.5,156.833 183.5,160.5C 171.167,160.5 158.833,160.5 146.5,160.5C 146.5,142.5 146.5,124.5 146.5,106.5 Z"/></g>
<g><path style="opacity:0.89" fill="#000000" d="M 188.5,106.5 C 197.506,106.334 206.506,106.5 215.5,107C 227.655,109.128 232.489,116.295 230,128.5C 228.895,133.206 226.062,136.373 221.5,138C 225.6,145.364 229.266,152.864 232.5,160.5C 227.456,160.827 222.456,160.494 217.5,159.5C 214.667,153.833 211.833,148.167 209,142.5C 206.959,141.577 204.792,141.244 202.5,141.5C 202.5,147.833 202.5,154.167 202.5,160.5C 197.833,160.5 193.167,160.5 188.5,160.5C 188.5,142.5 188.5,124.5 188.5,106.5 Z M 202.5,117.5 C 206.182,117.335 209.848,117.501 213.5,118C 217.489,122.045 217.489,126.045 213.5,130C 209.848,130.499 206.182,130.665 202.5,130.5C 202.5,126.167 202.5,121.833 202.5,117.5 Z"/></g>
<g><path style="opacity:0.897" fill="#000000" d="M 231.5,106.5 C 236.762,106.195 241.928,106.529 247,107.5C 250.18,119.223 253.514,130.889 257,142.5C 260.171,130.481 263.338,118.481 266.5,106.5C 271.5,106.5 276.5,106.5 281.5,106.5C 275.839,124.483 270.173,142.483 264.5,160.5C 259.456,160.827 254.456,160.494 249.5,159.5C 243.097,141.959 237.097,124.292 231.5,106.5 Z"/></g>
<g><path style="opacity:0.898" fill="#000000" d="M 295.5,106.5 C 300.099,106.2 304.599,106.533 309,107.5C 315.756,125.001 321.922,142.667 327.5,160.5C 322.786,160.827 318.12,160.493 313.5,159.5C 312.5,156.833 311.5,154.167 310.5,151.5C 304.872,150.505 299.206,150.171 293.5,150.5C 293.002,153.829 292.002,156.995 290.5,160C 285.845,160.499 281.179,160.666 276.5,160.5C 282.826,142.51 289.16,124.51 295.5,106.5 Z M 301.5,124.5 C 304.137,129.079 305.804,134.079 306.5,139.5C 303.428,139.817 300.428,139.484 297.5,138.5C 299.041,133.879 300.374,129.212 301.5,124.5 Z"/></g>
<g><path style="opacity:0.884" fill="#000000" d="M 322.5,106.5 C 337.5,106.5 352.5,106.5 367.5,106.5C 367.5,110.167 367.5,113.833 367.5,117.5C 362.167,117.5 356.833,117.5 351.5,117.5C 351.5,131.833 351.5,146.167 351.5,160.5C 346.833,160.5 342.167,160.5 337.5,160.5C 337.5,146.167 337.5,131.833 337.5,117.5C 332.5,117.5 327.5,117.5 322.5,117.5C 322.5,113.833 322.5,110.167 322.5,106.5 Z"/></g>
<g><path style="opacity:0.877" fill="#000000" d="M 371.5,106.5 C 376.167,106.5 380.833,106.5 385.5,106.5C 385.5,124.5 385.5,142.5 385.5,160.5C 380.833,160.5 376.167,160.5 371.5,160.5C 371.5,142.5 371.5,124.5 371.5,106.5 Z"/></g>
<g><path style="opacity:0.91" fill="#000000" d="M 444.5,106.5 C 449.214,106.173 453.88,106.507 458.5,107.5C 464,117.167 469.5,126.833 475,136.5C 475.5,126.506 475.666,116.506 475.5,106.5C 480.167,106.5 484.833,106.5 489.5,106.5C 489.5,124.5 489.5,142.5 489.5,160.5C 484.786,160.827 480.12,160.493 475.5,159.5C 469.866,149.37 464.033,139.37 458,129.5C 457.5,139.828 457.334,150.161 457.5,160.5C 453.167,160.5 448.833,160.5 444.5,160.5C 444.5,142.5 444.5,124.5 444.5,106.5 Z"/></g>
</svg>
