<?xml version="1.0" encoding="UTF-8"?>
<!DOCTYPE svg PUBLIC "-//W3C//DTD SVG 1.1//EN" "http://www.w3.org/Graphics/SVG/1.1/DTD/svg11.dtd">
<svg xmlns="http://www.w3.org/2000/svg" version="1.1" width="641px" height="648px" style="shape-rendering:geometricPrecision; text-rendering:geometricPrecision; image-rendering:optimizeQuality; fill-rule:evenodd; clip-rule:evenodd" xmlns:xlink="http://www.w3.org/1999/xlink">
<g><path style="opacity:0.531" fill="#7a7b7a" d="M 313.5,-0.5 C 324.833,-0.5 336.167,-0.5 347.5,-0.5C 454.59,8.93981 535.09,59.9398 589,152.5C 630.598,233.609 635.598,316.943 604,402.5C 601.984,408.703 598.817,414.203 594.5,419C 504.778,498.596 401.445,523.929 284.5,495C 206.819,471.958 145.652,426.791 101,359.5C 89.9844,337.469 78.9844,315.469 68,293.5C 57.3874,264.724 51.3874,235.057 50,204.5C 76.9351,123.562 128.768,64.3955 205.5,27C 239.939,11.2242 275.939,2.05752 313.5,-0.5 Z M 380.5,19.5 C 395.083,19.2169 409.083,21.8836 422.5,27.5C 419.098,30.9101 415.431,33.9101 411.5,36.5C 397.927,31.6979 384.26,27.1979 370.5,23C 373.74,21.3079 377.073,20.1412 380.5,19.5 Z M 334.5,20.5 C 335.376,20.3691 336.043,20.7025 336.5,21.5C 335.277,22.6139 333.944,22.7805 332.5,22C 333.416,21.7216 334.082,21.2216 334.5,20.5 Z M 343.5,21.5 C 344.289,21.7828 344.956,22.2828 345.5,23C 344.184,23.5281 343.517,23.0281 343.5,21.5 Z M 330.5,25.5 C 338.604,25.477 346.604,26.3104 354.5,28C 343.167,28.6667 331.833,28.6667 320.5,28C 323.952,27.1153 327.286,26.282 330.5,25.5 Z M 426.5,28.5 C 437.82,32.9891 447.653,39.6557 456,48.5C 458.076,51.2171 458.743,54.2171 458,57.5C 444.63,51.2348 431.13,45.0682 417.5,39C 417.167,38.6667 416.833,38.3333 416.5,38C 419.729,34.6014 423.062,31.4347 426.5,28.5 Z M 379.5,29.5 C 389.712,31.7374 399.546,35.0708 409,39.5C 405.725,45.1562 401.891,50.6562 397.5,56C 394.298,55.9137 391.298,54.9137 388.5,53C 389.938,52.7811 391.271,52.2811 392.5,51.5C 391.221,49.8539 389.555,48.6872 387.5,48C 388.793,47.51 390.127,47.3433 391.5,47.5C 391.822,45.2776 391.155,43.4443 389.5,42C 385.932,40.3819 382.265,39.0485 378.5,38C 374.244,35.2771 374.578,34.1104 379.5,34.5C 379.5,32.8333 379.5,31.1667 379.5,29.5 Z M 333.5,30.5 C 337.37,30.6972 341.037,31.5306 344.5,33C 334.856,34.3316 325.189,35.4982 315.5,36.5C 315.579,35.0695 315.246,33.7362 314.5,32.5C 320.988,31.8332 327.321,31.1666 333.5,30.5 Z M 439.5,31.5 C 441.089,30.3789 442.756,30.5456 444.5,32C 442.803,32.3845 441.137,32.2178 439.5,31.5 Z M 305.5,33.5 C 308.604,32.9711 310.937,33.9711 312.5,36.5C 307.977,38.309 303.31,39.1424 298.5,39C 301.266,37.629 303.599,35.7957 305.5,33.5 Z M 447.5,36.5 C 449.435,35.291 451.435,35.4577 453.5,37C 451.455,37.4901 449.455,37.3235 447.5,36.5 Z M 329.5,37.5 C 331.527,37.3379 333.527,37.5045 335.5,38C 333.112,38.3034 330.945,39.1367 329,40.5C 326.224,38.8603 324.224,39.527 323,42.5C 321.053,41.8903 319.219,41.0569 317.5,40C 321.637,39.1606 325.637,38.3272 329.5,37.5 Z M 284.5,42.5 C 286.889,38.9958 289.889,38.4958 293.5,41C 290.522,41.696 287.522,42.196 284.5,42.5 Z M 308.5,40.5 C 310.5,40.5 312.5,40.5 314.5,40.5C 314.261,42.4672 314.594,44.3005 315.5,46C 311.548,45.5661 307.548,45.5661 303.5,46C 293.844,50.4945 284.177,54.9945 274.5,59.5C 268.166,55.7582 268.166,52.2582 274.5,49C 285.849,45.703 297.183,42.8697 308.5,40.5 Z M 412.5,41.5 C 427.575,46.7033 441.908,53.5367 455.5,62C 449,65.718 442.333,66.5513 435.5,64.5C 424.149,65.1792 413.149,63.3459 402.5,59C 401.833,58.6667 401.167,58.3333 400.5,58C 404.718,52.6218 408.718,47.1218 412.5,41.5 Z M 381.5,53.5 C 383.255,54.0722 384.922,54.9055 386.5,56C 378.697,62.8019 371.197,69.9686 364,77.5C 360.419,75.6265 356.919,73.6265 353.5,71.5C 362.558,64.977 371.892,58.977 381.5,53.5 Z M 254.5,67.5 C 258.146,63.1877 262.146,59.1877 266.5,55.5C 268.027,57.1933 269.36,59.0266 270.5,61C 265.259,63.456 259.925,65.6226 254.5,67.5 Z M 478.5,56.5 C 480.38,56.2291 481.713,56.8958 482.5,58.5C 480.847,58.3404 479.514,57.6737 478.5,56.5 Z M 389.5,57.5 C 391.645,57.7377 393.312,58.7377 394.5,60.5C 389.084,68.3299 383.917,76.3299 379,84.5C 375.27,82.4774 371.437,80.6441 367.5,79C 374.729,71.6034 382.062,64.4368 389.5,57.5 Z M 276.5,61.5 C 278.908,62.3148 279.741,63.9814 279,66.5C 277.628,65.0899 276.795,63.4233 276.5,61.5 Z M 397.5,61.5 C 400.056,61.1322 402.056,61.9655 403.5,64C 400.465,72.7716 397.632,81.605 395,90.5C 390.816,88.6626 386.65,86.8293 382.5,85C 387.635,77.2232 392.635,69.3898 397.5,61.5 Z M 356.5,64.5 C 356.783,63.7109 357.283,63.0442 358,62.5C 358.528,63.816 358.028,64.4827 356.5,64.5 Z M 481.5,62.5 C 483.681,62.2837 485.347,63.117 486.5,65C 484.332,65.2494 482.665,64.4161 481.5,62.5 Z M 271.5,63.5 C 275.332,66.4989 278.665,69.9989 281.5,74C 268.25,81.2057 255.416,89.0391 243,97.5C 241,95.5 239,93.5 237,91.5C 236.333,90.5 236.333,89.5 237,88.5C 240.138,83.7286 243.638,79.2286 247.5,75C 255.646,71.2421 263.646,67.4088 271.5,63.5 Z M 307.5,64.5 C 314.226,66.2011 320.893,66.8677 327.5,66.5C 318.203,72.4864 308.87,78.4864 299.5,84.5C 295.225,81.8579 291.558,78.5246 288.5,74.5C 294.768,70.8677 301.102,67.5344 307.5,64.5 Z M 355.5,65.5 C 355.027,66.9063 354.027,67.573 352.5,67.5C 352.877,65.1759 353.877,64.5092 355.5,65.5 Z M 292.5,65.5 C 294.199,65.3398 295.866,65.5065 297.5,66C 293.255,68.0391 289.088,70.2058 285,72.5C 284.167,71.6667 283.333,70.8333 282.5,70C 286.264,69.1477 289.597,67.6477 292.5,65.5 Z M 460.5,65.5 C 468.472,69.2986 475.472,74.4653 481.5,81C 480.092,81.3152 478.759,80.9819 477.5,80C 471.936,74.9271 466.269,70.0938 460.5,65.5 Z M 468.5,65.5 C 470.593,66.0447 472.593,66.878 474.5,68C 475.451,68.7175 475.617,69.5509 475,70.5C 472.648,68.9697 470.481,67.3031 468.5,65.5 Z M 481.5,88.5 C 480.504,88.5858 479.671,88.2524 479,87.5C 478.396,89.6857 477.23,89.8524 475.5,88C 468.47,80.6352 461.136,73.6352 453.5,67C 454.908,66.6848 456.241,67.0181 457.5,68C 466.28,73.9488 474.28,80.7821 481.5,88.5 Z M 405.5,67.5 C 406.748,69.2994 407.748,71.1327 408.5,73C 410.108,73.658 411.275,73.158 412,71.5C 412.404,79.1745 412.238,86.8411 411.5,94.5C 407.778,93.9834 404.112,93.15 400.5,92C 399.572,91.6121 398.905,90.9454 398.5,90C 400.739,82.4518 403.072,74.9518 405.5,67.5 Z M 416.5,67.5 C 418.167,67.5 419.833,67.5 421.5,67.5C 423.681,76.7406 425.348,86.0739 426.5,95.5C 422.443,94.4234 418.609,94.4234 415,95.5C 415.036,88.1811 415.203,80.8478 415.5,73.5C 420.57,72.6383 420.57,71.1383 415.5,69C 416.056,68.6174 416.389,68.1174 416.5,67.5 Z M 448.5,67.5 C 451.771,69.5912 454.937,71.9245 458,74.5C 458.781,75.9437 458.614,77.277 457.5,78.5C 454.105,75.1102 451.105,71.4435 448.5,67.5 Z M 330.5,68.5 C 335.162,68.9625 339.829,69.4625 344.5,70C 345.308,70.3076 345.975,70.8076 346.5,71.5C 343.133,74.6083 339.633,77.6083 336,80.5C 335.517,79.552 335.351,78.552 335.5,77.5C 333.076,77.1924 330.743,77.5258 328.5,78.5C 329.55,80.1017 328.883,80.935 326.5,81C 327.668,82.4056 327.335,83.5723 325.5,84.5C 325.977,85.4776 326.643,86.3109 327.5,87C 324.283,90.5174 320.783,93.6841 317,96.5C 311.901,93.3672 307.068,89.8672 302.5,86C 311.74,79.9078 321.074,74.0744 330.5,68.5 Z M 425.5,68.5 C 427.144,68.2865 428.644,68.6198 430,69.5C 434.655,79.2973 438.821,89.2973 442.5,99.5C 438.608,100.327 434.775,99.9935 431,98.5C 429.057,88.5064 427.224,78.5064 425.5,68.5 Z M 433.5,68.5 C 435.679,68.84 437.512,69.84 439,71.5C 445.43,80.7728 451.263,90.4394 456.5,100.5C 452.955,101.791 449.455,101.791 446,100.5C 442.121,89.6912 437.954,79.0246 433.5,68.5 Z M 441.5,68.5 C 442.552,68.3505 443.552,68.5172 444.5,69C 448.167,73.3333 451.833,77.6667 455.5,82C 454.978,82.5613 454.645,83.228 454.5,84C 455.578,86.7952 456.078,89.6285 456,92.5C 451.311,84.334 446.478,76.334 441.5,68.5 Z M 349.5,73.5 C 353.606,75.3876 357.606,77.5542 361.5,80C 352.962,88.8691 344.796,98.0357 337,107.5C 331.582,104.207 326.082,101.04 320.5,98C 323.369,94.7959 326.535,91.9626 330,89.5C 335.087,91.2186 340.254,91.552 345.5,90.5C 345.905,88.3502 346.405,86.3502 347,84.5C 344.959,83.5769 342.792,83.2436 340.5,83.5C 340.351,82.448 340.517,81.448 341,80.5C 344.023,78.3024 346.856,75.969 349.5,73.5 Z M 282.5,76.5 C 283.552,76.3505 284.552,76.5172 285.5,77C 288.616,80.7177 292.282,83.7177 296.5,86C 284.879,94.6195 273.545,103.619 262.5,113C 256.389,109.594 250.722,105.261 245.5,100C 257.56,91.6426 269.893,83.8092 282.5,76.5 Z M 462.5,79.5 C 469.509,84.6705 474.842,91.1705 478.5,99C 477.07,100.44 475.403,100.774 473.5,100C 469.789,94.7442 465.955,89.5775 462,84.5C 461.616,82.8034 461.782,81.1368 462.5,79.5 Z M 363.5,81.5 C 368.392,82.6257 372.725,84.7924 376.5,88C 370.714,97.7356 365.047,107.569 359.5,117.5C 353.167,114.667 346.833,111.833 340.5,109C 348.401,99.9409 356.068,90.7743 363.5,81.5 Z M 298.5,88.5 C 303.947,91.7306 309.281,95.2306 314.5,99C 304.167,108 294.5,117.667 285.5,128C 278.594,125.146 272.094,121.313 266,116.5C 265.837,114.613 266.671,113.113 268.5,112C 278.4,103.921 288.4,96.0881 298.5,88.5 Z M 380.5,88.5 C 384.845,89.8375 389.178,91.1708 393.5,92.5C 392.253,99.7407 389.92,106.574 386.5,113C 382.749,113.749 379.082,114.749 375.5,116C 374.598,118.202 373.598,120.368 372.5,122.5C 369.573,121.199 366.573,120.199 363.5,119.5C 368.373,108.756 374.04,98.4223 380.5,88.5 Z M 467.5,98.5 C 463.589,96.6659 461.756,93.6659 462,89.5C 464.358,92.2223 466.191,95.2223 467.5,98.5 Z M 225.5,110.5 C 227.795,104.577 230.628,98.9099 234,93.5C 236.018,95.3501 237.851,97.3501 239.5,99.5C 234.842,103.164 230.175,106.831 225.5,110.5 Z M 392.5,109.5 C 393.833,104.5 395.167,99.5 396.5,94.5C 400.673,95.0436 404.673,96.2103 408.5,98C 402.73,101.277 397.397,105.11 392.5,109.5 Z M 468.5,100.5 C 465.206,102.097 462.206,101.597 459.5,99C 462.23,100.122 465.23,100.622 468.5,100.5 Z M 317.5,100.5 C 323.315,103.909 329.315,107.075 335.5,110C 326.947,120.886 318.78,132.053 311,143.5C 303.056,139.783 295.556,135.45 288.5,130.5C 297.516,119.818 307.182,109.818 317.5,100.5 Z M 240.5,102.5 C 241.552,102.351 242.552,102.517 243.5,103C 248.543,107.712 253.877,112.045 259.5,116C 247.868,125.298 237.201,135.631 227.5,147C 226.5,147.667 225.5,147.667 224.5,147C 221.167,144.333 217.833,141.667 214.5,139C 216.46,131.667 218.96,124.5 222,117.5C 228.355,112.636 234.522,107.636 240.5,102.5 Z M 437.5,104.5 C 438.274,103.853 439.274,103.52 440.5,103.5C 443.476,103.13 444.476,104.13 443.5,106.5C 441.677,105.253 439.677,104.586 437.5,104.5 Z M 470.5,103.5 C 474.627,105.637 474.46,107.637 470,109.5C 469.517,108.552 469.351,107.552 469.5,106.5C 467.61,106.297 466.11,106.963 465,108.5C 464.044,107.421 463.211,106.255 462.5,105C 465.365,104.817 468.031,104.317 470.5,103.5 Z M 447.5,104.5 C 451.555,104.176 455.555,104.509 459.5,105.5C 462.545,108.75 462.878,112.084 460.5,115.5C 459.5,115.167 458.833,114.5 458.5,113.5C 459.326,112.549 459.492,111.549 459,110.5C 457.088,109.308 455.088,108.308 453,107.5C 453.366,110.581 454.532,113.414 456.5,116C 454.866,116.494 453.199,116.66 451.5,116.5C 450.205,112.555 448.871,108.555 447.5,104.5 Z M 325.5,129.5 C 329.252,123.023 333.752,117.023 339,111.5C 344.815,115.047 350.982,117.714 357.5,119.5C 355.404,126.358 352.238,132.691 348,138.5C 347.774,135.905 347.274,133.405 346.5,131C 348.585,129.959 350.252,128.459 351.5,126.5C 350.619,125.029 349.286,124.196 347.5,124C 348.91,123.632 349.91,122.799 350.5,121.5C 347.595,119.187 344.595,119.02 341.5,121C 339.135,124.071 337.135,127.404 335.5,131C 336.116,133.179 337.283,135.012 339,136.5C 339.438,140.729 338.105,141.396 335,138.5C 333.117,139.653 332.284,141.319 332.5,143.5C 331.167,143.5 329.833,143.5 328.5,143.5C 328.421,144.93 328.754,146.264 329.5,147.5C 327.997,148.557 326.33,149.224 324.5,149.5C 320.893,148.363 317.56,146.696 314.5,144.5C 315.026,142.77 316.026,141.436 317.5,140.5C 324.85,143.241 330.35,141.241 334,134.5C 335.165,131.186 333.998,129.186 330.5,128.5C 328.929,129.309 327.262,129.643 325.5,129.5 Z M 416.5,113.5 C 418.912,113.244 420.579,114.244 421.5,116.5C 418.55,118.115 415.884,120.115 413.5,122.5C 412.739,126.867 412.072,130.867 411.5,134.5C 410.064,126.675 411.73,119.675 416.5,113.5 Z M 439.5,116.5 C 439.56,115.957 439.893,115.624 440.5,115.5C 442.607,116.637 444.773,117.637 447,118.5C 450.501,122.503 450.001,123.17 445.5,120.5C 444.719,121.729 444.219,123.062 444,124.5C 442.327,121.836 440.827,119.17 439.5,116.5 Z M 261.5,117.5 C 268.471,122.323 275.471,127.157 282.5,132C 272.292,143.206 262.459,154.706 253,166.5C 245.03,161.362 237.196,156.029 229.5,150.5C 230,149.5 230.5,148.5 231,147.5C 241.062,137.271 251.228,127.271 261.5,117.5 Z M 380.5,133.5 C 380.579,134.93 380.246,136.264 379.5,137.5C 377.433,138.134 375.6,139.134 374,140.5C 373.823,144.244 372.99,147.911 371.5,151.5C 367.558,150.4 363.558,150.233 359.5,151C 356.052,155.854 351.386,157.687 345.5,156.5C 347.201,153.955 349.201,151.622 351.5,149.5C 350.263,148.719 349.263,147.719 348.5,146.5C 352.253,137.986 356.753,129.986 362,122.5C 364.871,123.401 367.704,124.401 370.5,125.5C 370.565,132.23 373.898,134.897 380.5,133.5 Z M 406.5,122.5 C 407.693,122.97 408.36,123.97 408.5,125.5C 408.064,128.179 407.564,130.845 407,133.5C 402.545,129.988 402.378,126.321 406.5,122.5 Z M 284.5,133.5 C 292.765,137.3 300.765,141.633 308.5,146.5C 300.5,158.833 292.5,171.167 284.5,183.5C 275.006,178.587 265.672,173.42 256.5,168C 265.722,156.378 275.055,144.878 284.5,133.5 Z M 384.5,133.5 C 385.23,137.031 385.896,140.697 386.5,144.5C 384.579,145.641 382.579,145.808 380.5,145C 382.592,144.047 382.925,142.714 381.5,141C 383.055,138.745 384.055,136.245 384.5,133.5 Z M 405.5,135.5 C 406.467,142.799 405.8,150.132 403.5,157.5C 402.071,156.065 400.405,155.065 398.5,154.5C 395.265,155.031 392.098,155.698 389,156.5C 386.784,153.394 383.784,151.727 380,151.5C 379.333,150.167 379.333,148.833 380,147.5C 381.353,148.685 382.52,150.019 383.5,151.5C 385.068,149.456 386.902,149.122 389,150.5C 391.248,149.045 393.748,148.212 396.5,148C 398.235,145.363 399.568,142.53 400.5,139.5C 402.772,138.866 404.439,137.532 405.5,135.5 Z M 409.5,137.5 C 412.254,137.784 414.92,138.451 417.5,139.5C 416.138,142.219 416.471,144.719 418.5,147C 418.37,148.059 417.87,148.892 417,149.5C 416,148.167 415,146.833 414,145.5C 412.795,146.071 411.628,146.738 410.5,147.5C 409.915,150.503 409.248,153.503 408.5,156.5C 408.167,156 407.833,155.5 407.5,155C 408.7,149.23 409.367,143.397 409.5,137.5 Z M 213.5,142.5 C 216.803,145.158 220.136,147.825 223.5,150.5C 219.522,155.646 215.355,160.646 211,165.5C 211.219,157.793 212.052,150.127 213.5,142.5 Z M 311.5,147.5 C 318.964,150.732 326.297,154.232 333.5,158C 332.874,158.75 332.374,159.584 332,160.5C 330.023,159.095 327.857,158.095 325.5,157.5C 323.431,157.785 322.098,158.952 321.5,161C 329.828,168.845 329.328,176.011 320,182.5C 313.691,180.187 307.858,177.02 302.5,173C 300.114,173.351 297.781,173.185 295.5,172.5C 300.86,164.149 306.193,155.816 311.5,147.5 Z M 226.5,152.5 C 234.462,158.487 242.795,163.987 251.5,169C 242.131,181.571 233.131,194.404 224.5,207.5C 219.864,204.696 215.364,201.696 211,198.5C 209.868,189.52 209.534,180.52 210,171.5C 215.709,165.295 221.209,158.961 226.5,152.5 Z M 345.5,156.5 C 345.361,158.337 344.694,158.67 343.5,157.5C 343.957,156.702 344.624,156.369 345.5,156.5 Z M 254.5,170.5 C 263.999,175.748 273.332,181.248 282.5,187C 275.204,200.432 267.537,213.599 259.5,226.5C 248.353,221.429 237.686,215.595 227.5,209C 236.331,196.01 245.331,183.177 254.5,170.5 Z M 292.5,178.5 C 292.709,177.078 293.209,175.745 294,174.5C 294.773,176.352 294.273,177.686 292.5,178.5 Z M 292.5,178.5 C 292.56,182.293 290.893,184.459 287.5,185C 289.066,182.674 290.732,180.508 292.5,178.5 Z M 282.5,192.5 C 283.391,193.261 284.058,194.261 284.5,195.5C 283.248,197.001 282.248,198.668 281.5,200.5C 283.57,202.642 286.07,203.976 289,204.5C 289.058,210.154 286.224,213.987 280.5,216C 276.326,216.35 272.326,217.017 268.5,218C 273.318,209.526 277.985,201.026 282.5,192.5 Z M 336.5,192.5 C 341.163,192.246 345.329,193.58 349,196.5C 352.553,194.52 356.219,193.854 360,194.5C 361.058,198.288 359.558,200.288 355.5,200.5C 354.072,202.655 353.739,204.821 354.5,207C 353.207,207.49 351.873,207.657 350.5,207.5C 350.719,208.675 350.386,209.675 349.5,210.5C 341.128,207.432 332.794,204.265 324.5,201C 323.167,200.333 323.167,199.667 324.5,199C 328.191,198.58 331.858,198.08 335.5,197.5C 335.629,195.784 335.962,194.117 336.5,192.5 Z M 372.5,192.5 C 373.833,192.5 375.167,192.5 376.5,192.5C 376.238,193.978 376.571,195.311 377.5,196.5C 378.425,195.359 379.259,195.359 380,196.5C 380.25,199.754 381.25,202.754 383,205.5C 386.527,209.027 390.027,212.527 393.5,216C 392.331,218.007 391.665,220.173 391.5,222.5C 390.325,222.719 389.325,222.386 388.5,221.5C 383.894,216.713 379.727,211.713 376,206.5C 375.186,202.705 373.686,199.205 371.5,196C 372.337,194.989 372.67,193.822 372.5,192.5 Z M 435.5,201.5 C 437.669,203.636 440.336,205.136 443.5,206C 442.552,206.483 441.552,206.649 440.5,206.5C 442.12,208.99 443.62,211.656 445,214.5C 447.763,212.03 450.93,211.196 454.5,212C 457.939,214.139 461.106,216.639 464,219.5C 464.499,223.486 464.666,227.486 464.5,231.5C 462.801,231.66 461.134,231.494 459.5,231C 455.962,228.731 452.295,226.731 448.5,225C 445.833,224.333 443.167,224.333 440.5,225C 438.073,226.591 435.407,227.425 432.5,227.5C 432.971,218.753 433.971,210.087 435.5,201.5 Z M 373.5,217.5 C 368.298,216.711 363.298,215.211 358.5,213C 359.658,209.527 360.824,206.027 362,202.5C 364.931,208.255 368.764,213.255 373.5,217.5 Z M 456.5,202.5 C 459.797,202.329 460.131,202.995 457.5,204.5C 458.859,206.306 458.525,207.806 456.5,209C 454.265,209.067 452.098,208.567 450,207.5C 449.251,206.365 449.417,205.365 450.5,204.5C 452.657,203.95 454.657,203.283 456.5,202.5 Z M 211.5,203.5 C 215.352,205.925 219.019,208.591 222.5,211.5C 220.136,214.699 217.97,218.032 216,221.5C 213.871,215.65 212.371,209.65 211.5,203.5 Z M 320.5,203.5 C 329.886,206.629 339.219,209.962 348.5,213.5C 348.833,214.833 349.167,216.167 349.5,217.5C 350.833,217.833 352.167,218.167 353.5,218.5C 352.423,220.729 351.756,223.063 351.5,225.5C 348.813,225.664 346.146,225.497 343.5,225C 334.087,221.756 324.42,219.089 314.5,217C 316.641,212.553 318.641,208.053 320.5,203.5 Z M 495.5,206.5 C 497.693,205.203 500.027,205.203 502.5,206.5C 503.309,208.071 503.643,209.738 503.5,211.5C 502.07,211.421 500.736,211.754 499.5,212.5C 499.002,213.603 498.669,214.603 498.5,215.5C 497.182,212.495 496.182,209.495 495.5,206.5 Z M 492.5,208.5 C 494.734,215.91 495.9,223.576 496,231.5C 492.328,226.601 489.161,221.434 486.5,216C 487.984,213.023 489.984,210.523 492.5,208.5 Z M 313.5,210.5 C 312.726,213.514 311.393,216.181 309.5,218.5C 306.572,218.104 303.572,217.937 300.5,218C 297.535,216.092 294.868,213.926 292.5,211.5C 293.736,210.643 295.069,209.977 296.5,209.5C 299.393,210.74 302.227,212.074 305,213.5C 307.492,211.503 310.325,210.503 313.5,210.5 Z M 428.5,209.5 C 429.805,211.397 430.471,213.731 430.5,216.5C 430.333,218.833 430.167,221.167 430,223.5C 429.692,224.308 429.192,224.975 428.5,225.5C 426.174,224.187 424.841,222.187 424.5,219.5C 426.313,216.355 427.646,213.022 428.5,209.5 Z M 225.5,212.5 C 235.823,218.663 246.489,224.33 257.5,229.5C 258.521,230.002 258.688,230.668 258,231.5C 254.258,233.218 250.425,233.551 246.5,232.5C 239.747,234.797 233.747,238.297 228.5,243C 226.835,243.788 225.169,244.122 223.5,244C 221.006,238.685 219.006,233.185 217.5,227.5C 219.376,222.081 222.043,217.081 225.5,212.5 Z M 357.5,216.5 C 363.436,218.422 369.436,220.256 375.5,222C 377.922,224.112 377.922,226.112 375.5,228C 371.35,228.131 367.35,227.298 363.5,225.5C 362.585,226.328 361.919,227.328 361.5,228.5C 364.52,231.516 367.854,234.183 371.5,236.5C 372.95,235.15 373.617,233.484 373.5,231.5C 376.682,230.97 379.682,229.97 382.5,228.5C 382.5,227.167 382.5,225.833 382.5,224.5C 386.236,224.496 389.236,225.829 391.5,228.5C 388.497,242.514 385.497,256.514 382.5,270.5C 381.127,270.657 379.793,270.49 378.5,270C 375.346,267.257 372.012,264.757 368.5,262.5C 365.96,256.135 361.293,251.968 354.5,250C 352.5,247.667 350.5,245.333 348.5,243C 351.219,241.281 353.219,238.947 354.5,236C 353.136,233.425 353.802,231.425 356.5,230C 356.333,229.5 356.167,229 356,228.5C 355.107,229.711 354.274,229.711 353.5,228.5C 355.039,224.55 356.372,220.55 357.5,216.5 Z M 507.5,233.5 C 507.5,234.833 507.5,236.167 507.5,237.5C 505.167,237.5 502.833,237.5 500.5,237.5C 499.758,231.488 499.258,225.488 499,219.5C 499.936,222.768 501.936,225.101 505,226.5C 505.156,229.191 505.989,231.524 507.5,233.5 Z M 467.5,223.5 C 472.093,226.154 472.259,228.82 468,231.5C 467.503,228.854 467.336,226.187 467.5,223.5 Z M 409.5,226.5 C 411.856,225.32 414.189,225.654 416.5,227.5C 414.115,228.279 411.782,227.946 409.5,226.5 Z M 422.5,226.5 C 427.635,229.208 427.302,229.708 421.5,228C 422.056,227.617 422.389,227.117 422.5,226.5 Z M 405.5,230.5 C 405.735,229.903 406.235,229.57 407,229.5C 410.094,230.566 413.26,231.232 416.5,231.5C 417.974,234.327 417.64,236.827 415.5,239C 417.902,241.703 419.235,244.87 419.5,248.5C 424.196,247.869 426.863,249.869 427.5,254.5C 426.585,260.822 425.751,267.155 425,273.5C 424.653,275.18 423.653,276.18 422,276.5C 417.702,273.685 413.035,271.685 408,270.5C 403.857,268.015 400.023,265.181 396.5,262C 393.527,260.493 390.527,260.16 387.5,261C 389.766,251.51 392.099,242.01 394.5,232.5C 396.141,235.558 396.974,238.892 397,242.5C 398.509,244.919 400.675,245.919 403.5,245.5C 403.67,244.178 403.337,243.011 402.5,242C 408.609,240.653 409.609,237.819 405.5,233.5C 406.653,232.313 406.653,231.313 405.5,230.5 Z M 507.5,233.5 C 507.993,228.55 509.327,228.55 511.5,233.5C 510.192,234.626 508.858,234.626 507.5,233.5 Z M 501.5,240.5 C 504.167,240.5 506.833,240.5 509.5,240.5C 510.891,244.014 511.891,247.681 512.5,251.5C 511.652,253.761 509.985,254.761 507.5,254.5C 505.626,254.61 504.126,253.944 503,252.5C 501.734,248.605 501.234,244.605 501.5,240.5 Z M 431.5,250.5 C 435.089,251.587 438.589,252.92 442,254.5C 444.279,254.561 446.279,253.895 448,252.5C 449.988,253.286 451.154,254.786 451.5,257C 449.541,264.088 446.875,270.921 443.5,277.5C 442.562,278.553 441.395,279.22 440,279.5C 435.868,277.577 431.701,275.744 427.5,274C 428.652,266.134 429.985,258.301 431.5,250.5 Z M 438.5,296.5 C 440.479,296.542 442.479,296.542 444.5,296.5C 447.895,302.854 450.395,309.52 452,316.5C 453.487,317.155 454.653,318.155 455.5,319.5C 453.17,321.667 450.503,323.334 447.5,324.5C 444.63,322.352 443.963,319.685 445.5,316.5C 441.963,310.221 439.63,303.555 438.5,296.5 Z"/></g>
<g><path style="opacity:1" fill="#023ad0" d="M -0.5,304.5 C -0.5,302.5 -0.5,300.5 -0.5,298.5C 0.376442,298.369 1.04311,298.702 1.5,299.5C 10.2546,315.42 20.7546,330.087 33,343.5C 21.5642,322.616 11.2309,300.95 2,278.5C 1.63556,243.366 7.9689,209.366 21,176.5C 23.6385,296.277 71.8052,392.777 165.5,466C 209.402,497.648 258.069,518.648 311.5,529C 299.403,534.691 294.237,544.191 296,557.5C 297.537,567.52 299.204,577.52 301,587.5C 303.911,602.495 299.411,614.661 287.5,624C 257.941,642.488 226.274,647.155 192.5,638C 177.774,633.915 165.774,625.915 156.5,614C 165.086,615.978 173.753,617.978 182.5,620C 198.555,622.948 214.221,621.615 229.5,616C 232.433,614.729 235.099,613.062 237.5,611C 149.101,583.59 82.6006,529.423 38,448.5C 14.8195,403.147 1.98618,355.147 -0.5,304.5 Z"/></g>
<g><path style="opacity:0.334" fill="#7a7b7a" d="M 403.5,248.5 C 406.136,250.877 409.302,252.21 413,252.5C 414.828,253.886 414.495,254.886 412,255.5C 409.005,254.724 406.172,253.557 403.5,252C 402.316,250.855 402.316,249.688 403.5,248.5 Z"/></g>
<g><path style="opacity:0.369" fill="#7a7b7a" d="M 443.5,256.5 C 444.552,256.351 445.552,256.517 446.5,257C 445.24,259.928 443.073,261.761 440,262.5C 439,261.833 438,261.167 437,260.5C 436.312,259.668 436.479,259.002 437.5,258.5C 439.657,257.95 441.657,257.283 443.5,256.5 Z"/></g>
<g><path style="opacity:1" fill="#003ad0" d="M 637.5,411.5 C 637.328,412.492 637.662,413.158 638.5,413.5C 632.282,430.604 624.448,446.937 615,462.5C 598.171,477.999 579.671,491.166 559.5,502C 572.678,499.159 585.178,494.325 597,487.5C 597.315,488.908 596.982,490.241 596,491.5C 523.814,583.331 428.981,627.331 311.5,623.5C 311.5,622.167 310.833,621.5 309.5,621.5C 332.326,605.911 356.326,592.078 381.5,580C 390.712,577.041 400.045,576.374 409.5,578C 412.591,579.346 414.924,581.512 416.5,584.5C 417.192,583.975 417.692,583.308 418,582.5C 418.667,579.5 418.667,576.5 418,573.5C 416.046,569.019 414.713,564.352 414,559.5C 411.623,552.455 406.79,548.288 399.5,547C 386.435,545.409 373.435,543.409 360.5,541C 352.534,539.183 344.868,536.517 337.5,533C 437.822,540.112 526.155,511.446 602.5,447C 615.065,435.936 626.732,424.102 637.5,411.5 Z"/></g>
<g><path style="opacity:0.565" fill="#a9a5a4" d="M 640.5,409.5 C 640.5,409.833 640.5,410.167 640.5,410.5C 639.833,411.5 639.167,412.5 638.5,413.5C 637.662,413.158 637.328,412.492 637.5,411.5C 637.973,410.094 638.973,409.427 640.5,409.5 Z"/></g>
<g><path style="opacity:0.82" fill="#b4b0af" d="M 309.5,621.5 C 310.833,621.5 311.5,622.167 311.5,623.5C 310.127,623.657 308.793,623.49 307.5,623C 308.044,622.283 308.711,621.783 309.5,621.5 Z"/></g>
</svg>
