<?xml version="1.0" encoding="UTF-8" standalone="no"?>
<!DOCTYPE svg PUBLIC "-//W3C//DTD SVG 1.1//EN" "http://www.w3.org/Graphics/SVG/1.1/DTD/svg11.dtd">
<svg width="100%" height="100%" viewBox="0 0 100 100" version="1.1" xmlns="http://www.w3.org/2000/svg" xmlns:xlink="http://www.w3.org/1999/xlink" xml:space="preserve" xmlns:serif="http://www.serif.com/" style="fill-rule:evenodd;clip-rule:evenodd;stroke-linejoin:round;stroke-miterlimit:1.41421;">
    <g transform="matrix(-2.32184,-2.84344e-16,2.84344e-16,-2.32184,123.853,115.421)">
        <path d="M14.053,43.168L14.053,40.727C17.965,38.519 20.532,36.515 21.752,34.713C22.972,32.912 23.583,30.83 23.583,28.467C23.583,27.382 23.389,26.568 23.002,26.026C22.575,25.484 22.111,25.213 21.607,25.213C21.22,25.213 20.6,25.368 19.747,25.678C18.895,25.987 18.043,26.142 17.191,26.142C15.564,26.142 14.169,25.561 13.007,24.399C11.845,23.237 11.264,21.823 11.264,20.157C11.264,18.298 12.009,16.671 13.501,15.276C14.992,13.882 16.803,13.184 18.934,13.184C21.491,13.184 23.805,14.288 25.878,16.496C27.95,18.705 28.987,21.494 28.987,24.864C28.987,28.932 27.679,32.65 25.064,36.021C22.449,39.391 18.779,41.773 14.053,43.168ZM37.303,43.168L37.303,40.727C40.673,38.984 43.104,37.134 44.595,35.178C46.086,33.222 46.832,31.101 46.832,28.815C46.832,27.459 46.639,26.51 46.251,25.968C45.864,25.464 45.438,25.213 44.973,25.213C44.469,25.213 43.791,25.368 42.939,25.678C42.048,25.987 41.273,26.142 40.615,26.142C39.026,26.142 37.641,25.542 36.46,24.341C35.278,23.14 34.688,21.707 34.688,20.041C34.688,18.182 35.404,16.574 36.838,15.218C38.271,13.862 40.034,13.184 42.125,13.184C44.76,13.184 47.123,14.317 49.215,16.584C51.307,18.85 52.352,21.629 52.352,24.922C52.352,28.796 51.064,32.408 48.488,35.759C45.912,39.11 42.184,41.58 37.303,43.168Z" style="fill:url(#_Linear1);fill-rule:nonzero;"/>
    </g>
    <defs>
        <linearGradient id="_Linear1" x1="0" y1="0" x2="1" y2="0" gradientUnits="userSpaceOnUse" gradientTransform="matrix(-8.14717,29.9837,-29.9837,-8.14717,38.9501,13.1843)"><stop offset="0" style="stop-color:rgb(133,133,133);stop-opacity:1"/><stop offset="1" style="stop-color:rgb(209,209,209);stop-opacity:1"/></linearGradient>
    </defs>
</svg>
